<svg width="770" height="99" viewBox="0 0 770 99" fill="none" xmlns="http://www.w3.org/2000/svg">
<path d="M18.6901 97.9125C13.3901 96.5125 11.3901 91.4125 12.9901 82.9125C13.5901 79.3125 13.4901 76.5125 12.4901 73.0125C11.5901 69.4125 11.3901 64.3125 11.7901 53.9125L12.3901 39.7125L6.29014 27.6125C-0.509858 14.0125 -1.60986 8.0125 2.09014 3.5125L3.99014 1.1125L378.39 0.3125C624.49 -0.1875 753.49 -0.0875 754.99 0.6125C756.89 1.4125 757.19 2.3125 757.19 7.8125C757.19 11.3125 757.69 15.8125 758.29 17.9125C759.09 20.9125 758.99 22.6125 757.59 26.1125C756.49 29.1125 756.19 31.8125 756.59 34.3125C757.59 40.1125 763.29 59.0125 764.29 60.1125C765.99 61.9125 765.19 64.6125 762.19 66.8125C758.59 69.4125 757.19 73.8125 757.19 82.4125C757.19 88.4125 757.29 88.7125 760.39 90.6125C765.09 93.3125 770.207 96.0854 769.207 96.9854C733.269 96.9854 599.29 96.7125 397.19 97.0125C195.09 97.3125 27.6901 97.8125 25.1901 98.0125C22.6901 98.2125 19.7901 98.2125 18.6901 97.9125Z" fill="#EBDF95"/>
</svg>
