<svg width="764" height="99" viewBox="0 0 764 99" fill="none" xmlns="http://www.w3.org/2000/svg">
<path d="M26.0961 97.0457C26.0961 96.0457 26.4961 94.3457 26.8961 93.2457C27.9961 90.4457 27.1962 88.9457 23.8962 87.1457C20.2962 85.3457 19.1962 81.5457 21.3962 78.2457C23.6962 74.7457 23.3962 73.9457 19.4962 71.6457C15.3962 69.1457 15.0962 66.7457 17.5962 55.6457L19.1962 48.5457L16.0962 45.3457C13.6962 42.9457 12.9962 41.2457 12.9962 38.3457C12.9962 36.1457 12.0961 33.3457 10.8961 31.6457C7.79615 27.3457 8.69615 24.8457 13.9962 22.7457C21.4962 19.8457 20.2961 17.7457 9.99615 15.7457C6.39615 15.1457 2.69615 14.1457 1.79615 13.6457C-0.803851 12.2457 -0.503851 7.14574 2.19615 5.64574C9.29615 1.84574 11.4962 1.74574 115.996 1.74574C171.796 1.74574 327.796 1.24574 462.496 0.645736C733.596 -0.554265 733.796 -0.554264 739.296 4.84574C741.796 7.44574 742.096 8.14574 741.496 12.1457C740.696 17.3457 741.896 20.1457 745.996 22.2457C749.596 24.0457 749.996 27.5457 746.996 30.2457C743.896 33.0457 744.596 34.6457 749.496 36.7457C751.996 37.8457 753.996 39.2457 753.996 39.8457C753.996 40.4457 752.796 42.1457 751.396 43.4457C749.196 45.4457 748.896 46.3457 749.496 49.5457C750.496 54.8457 753.496 60.2457 757.196 63.0457C760.296 65.5457 760.396 65.6457 759.096 69.8457C757.996 73.6457 757.996 74.5457 759.796 78.6457C762.296 84.3457 764.496 94.1457 763.596 95.5457C763.196 96.1457 761.296 97.1457 759.196 97.7457C756.696 98.4457 638.196 98.7457 390.796 98.7457C43.9961 98.7457 25.9961 98.6457 26.0961 97.0457Z" fill="#EBDF95"/>
</svg>
