<svg width="764" height="99" viewBox="0 0 764 99" fill="none" xmlns="http://www.w3.org/2000/svg">
<path d="M4.5 95.7C2.2 92.1 0 83.4 0 77.7C0 73.5 1.5 69.9 11.6 50.2L23.3 27.5L22.6 16.9C22.1 7.6 22.2 6 23.7 4.2L25.5 2.1L277.5 1C416.1 0.5 582.3 0 646.8 0H764V3.3C764 5 763 8.5 761.9 11C760 15.1 759.9 16.6 760.5 28.2C761.1 39.3 760.9 41.8 759 48.7C757.3 55.2 756.2 57.1 752.9 60.1C749.5 63.3 749 64.3 749 68.1C749 70.5 749.9 74.5 751 76.9C754.6 84.8 752.8 95.4 747.7 96.4C746.5 96.7 579.1 97.2 375.8 97.5L6.2 98.2L4.5 95.7Z" fill="#EBDF95"/>
</svg>
