<svg width="763" height="99" viewBox="0 0 763 99" fill="none" xmlns="http://www.w3.org/2000/svg">
<path d="M68.8175 98.6491L0.317507 98.1491L0.0175071 95.5491C-0.182493 93.649 1.31751 90.6493 5.21751 85.0491C8.31751 80.6489 14.5175 71.5493 19.2175 64.649C26.6175 53.5487 1.21751 50.4709 11.2175 42.0706C25.2175 30.3703 15.1175 24.7709 19.2175 13.0706C23.2175 1.47021 14.5175 1.78261 19.2175 0.78258C21.5175 0.182562 206.818 0.648925 394.418 0.648925C667.318 0.648925 709.004 0.482246 743.718 0C743.718 13 735.604 9.66604 736.504 14.4662C739.004 29.6667 736.504 36.9662 736.504 44.4662C740.904 49.6663 742.418 54.249 743.718 55.849C745.218 57.7491 746.618 61.4489 747.518 66.4491C749.318 75.9493 750.218 77.7489 757.218 85.0491C762.818 90.9493 764.118 94.349 761.518 96.4491C760.618 97.2491 671.218 97.6491 450.718 97.9491C280.518 98.0491 140.418 98.4491 139.318 98.7491C138.218 98.9491 106.518 98.9491 68.8175 98.6491Z" fill="#EBDF95"/>
</svg>
