<svg width="763" height="96" viewBox="0 0 763 96" fill="none" xmlns="http://www.w3.org/2000/svg">
<path d="M380.625 95.3L12.8254 95L12.4254 92.7C11.0254 86 11.0254 81.4 12.4254 79.6C14.8254 76.3 14.2254 72.3 10.8254 69.8C8.72539 68.3 7.82539 66.8 7.82539 64.8C7.82539 63.2 6.82539 60.6 5.62539 58.9L3.32539 55.9L5.62539 52C8.32539 47.2 8.32539 46.5 5.72539 42.9C3.72539 40.1 3.72539 39.6 4.92539 30.9C5.92539 23.8 5.92539 21.5 5.02539 20.2C2.12539 16.3 -0.274609 9.7 0.0253906 6.7C0.225391 4.2 1.02539 3.1 3.82539 1.8C7.12539 0.1 26.8254 0 372.125 0C696.425 0 737.225 0.2 739.825 1.5C743.325 3.3 744.425 6.8 742.925 11.1C741.025 16.6 741.525 22.3 744.325 26C746.025 28.3 746.825 30.7 746.825 33.4C746.925 35.7 747.525 38.6 748.325 40C750.525 43.8 750.125 45 746.325 46.6C741.925 48.4 741.325 49.7 742.425 55.7C743.225 60.1 743.625 60.6 747.425 62C753.825 64.4 754.825 65.6 754.825 71.2C754.825 78.1 757.525 86.6 760.525 89.4C762.025 90.8 762.825 92.5 762.525 93.3C761.925 95 757.025 96.1 751.925 95.8C749.925 95.6 582.825 95.4 380.625 95.3Z" fill="#EBDF95"/>
</svg>
