<svg width="764" height="99" viewBox="0 0 764 99" fill="none" xmlns="http://www.w3.org/2000/svg">
<path d="M23.8819 95.7678C22.0819 93.5678 21.7819 91.6678 21.7819 84.3678C21.7819 75.8678 21.6819 75.4678 16.1819 64.2678C12.5819 56.8678 10.0819 50.2678 9.18191 45.4678C8.38191 41.4678 6.88191 35.1678 5.88191 31.4678C4.78191 27.8678 3.18191 21.0678 2.28191 16.3678C1.38191 11.6678 0.381908 6.86777 0.081908 5.66777C-0.218092 4.16777 0.281908 3.06777 1.98191 2.06777C3.98191 0.767773 46.8819 0.467773 365.882 0.167773C712.382 -0.132227 736.963 -0.205981 738.863 1.49402C740.363 2.89402 736.982 5.41193 737.382 11.5119C737.782 17.7119 734.163 19.694 736.363 23.494C738.863 27.694 737.982 29.2678 737.382 33.8678C736.782 38.7678 737.082 39.5678 740.482 44.4678C742.482 47.4678 745.582 53.6678 747.282 58.3678C748.982 63.0678 752.382 69.7678 754.882 73.3678C759.882 80.6678 764.882 93.6678 763.182 95.3678C762.582 95.9678 690.882 96.4678 553.782 96.8678C439.082 97.1678 273.482 97.5678 185.582 97.8678L25.9819 98.3678L23.8819 95.7678Z" fill="#EBDF95"/>
</svg>
