<svg width="760" height="99" viewBox="0 0 760 99" fill="none" xmlns="http://www.w3.org/2000/svg">
<path d="M8.52371 98.1901C6.52371 97.9901 4.72371 96.9901 3.82371 95.6901C0.423706 90.4901 -0.976294 57.6901 0.723706 23.1901C1.52371 7.89008 1.92371 4.79008 3.32371 3.99008C6.62371 2.19008 35.0237 1.99008 599.524 0.190083C730.624 -0.209917 756.624 -0.00991654 757.924 1.09008C759.324 2.19008 759.524 3.79008 759.024 10.9901C758.724 15.6901 757.724 21.9901 756.924 24.9901C755.624 29.9901 754.624 31.3901 745.124 40.2901C739.524 45.6901 743.938 57.1159 736.238 63.8159C731.738 80.3159 741.638 82.0159 736.238 88.8159V97.5901H424.324C280.524 97.7901 128.824 98.0901 87.3237 98.2901C45.8237 98.3901 10.3237 98.3901 8.52371 98.1901Z" fill="#EBDF95"/>
</svg>
