<svg width="200" height="200" viewBox="0 0 200 200" fill="none" xmlns="http://www.w3.org/2000/svg">
<rect width="200" height="200" fill="#FFF8DE"/>
<g filter="url(#filter0_d_2131_4)">
<rect x="28.3274" y="38.9767" width="134" height="134" transform="rotate(-8 28.3274 38.9767)" fill="white"/>
<rect x="30.0216" y="40.2533" width="131" height="131" transform="rotate(-8 30.0216 40.2533)" stroke="#313033" stroke-width="3"/>
<path d="M85.9524 74.0166C85.6895 73.0437 85.3999 72.1062 85.0838 71.2039C84.8295 70.2929 84.6062 69.3776 84.4138 68.4579C84.1335 67.3612 83.9373 66.1896 83.8252 64.9431C83.775 63.6879 83.8573 62.4771 84.0721 61.3109C84.3487 60.136 84.7975 59.0631 85.4185 58.0922C86.0394 57.1213 86.9736 56.3589 88.2212 55.8049C90.1234 54.9695 92.1479 54.7796 94.2948 55.2353C96.4329 55.6291 98.4602 56.1331 100.377 56.7473C102.232 57.3702 104.064 58.0594 105.874 58.8148C107.685 59.5702 109.548 60.2551 111.465 60.8693C112.454 61.1721 113.448 61.5058 114.446 61.8704C115.444 62.2351 116.331 62.71 117.107 63.2951C117.937 63.8096 118.634 64.5007 119.197 65.3681C119.814 66.165 120.236 67.1471 120.463 68.3144C120.699 69.5435 120.652 70.7808 120.322 72.0264C120.054 73.2632 119.751 74.4734 119.413 75.6571C117.497 82.2377 114.752 88.5247 111.176 94.5182C109.845 96.7249 108.28 98.8382 106.482 100.858C104.736 102.808 102.629 104.208 100.161 105.06C101.214 108.51 102.32 111.889 103.479 115.197C104.7 118.497 106.019 121.814 107.434 125.15C107.909 126.282 107.889 127.263 107.374 128.093C106.93 128.976 106.293 129.602 105.461 129.971C104.629 130.34 103.723 130.405 102.742 130.164C101.762 129.923 101.034 129.236 100.56 128.104C97.5178 120.831 94.9403 113.494 92.8269 106.091C90.7049 98.6259 88.9368 90.9852 87.5226 83.1684C87.3129 82.1249 87.1384 81.1081 86.9992 80.1178C86.8601 79.1275 86.6856 78.1107 86.4758 77.0672C86.4149 76.634 86.3584 76.2317 86.3062 75.8603C86.2453 75.4271 86.1578 75.0291 86.0437 74.6665L85.9524 74.0166ZM91.2783 64.085C91.4078 65.4553 91.6741 66.9011 92.0772 68.4223C92.2348 69.0944 92.3266 69.5233 92.3527 69.7089C92.4407 69.8859 92.4934 70.0363 92.5108 70.1601L93.0241 71.792C93.4708 73.6227 93.8289 75.4973 94.0985 77.416C94.6051 80.1218 95.0806 82.832 95.5252 85.5465C96.023 88.1905 96.5871 90.8567 97.2174 93.5451C97.3837 94.2791 97.519 95.0175 97.6234 95.7602C97.7896 96.4942 97.9825 97.1929 98.202 97.8563C98.7948 97.5836 99.2063 97.368 99.4365 97.2095C99.6579 96.989 99.8838 96.7995 100.114 96.6409C100.45 96.3411 100.699 96.0854 100.858 95.8736C102.231 94.4183 103.357 92.9978 104.235 91.6121C105.114 90.2264 105.926 88.8184 106.671 87.3882C108.314 84.2542 109.726 81.0577 110.909 77.7989C111.123 77.0746 111.345 76.4121 111.577 75.8116C111.799 75.1492 112.017 74.4559 112.231 73.7316C112.311 73.4047 112.396 73.1088 112.485 72.8438C112.574 72.5789 112.659 72.283 112.739 71.9561C112.944 71.1699 113.074 70.5206 113.128 70.008C113.067 69.5748 112.931 69.2784 112.719 69.1188C111.783 68.7454 111.085 68.4964 110.626 68.3716C108.709 67.7573 106.854 67.1344 105.061 66.5028C103.26 65.8093 101.392 65.0935 99.458 64.3555C98.522 63.9821 97.5593 63.644 96.57 63.3413C95.6427 63.0298 94.6621 62.7889 93.6283 62.6187C93.434 62.5829 93.2086 62.5514 92.9524 62.5243C92.758 62.4885 92.568 62.4837 92.3823 62.5098C91.9404 62.5088 91.6928 62.5435 91.6396 62.6141C91.5777 62.6228 91.5158 62.6315 91.4539 62.6402C91.3562 62.8433 91.2895 63.042 91.2537 63.2364C91.2798 63.4221 91.2706 63.5812 91.2261 63.7136L91.2783 64.085Z" fill="#313033"/>
</g>
<defs>
<filter id="filter0_d_2131_4" x="24.3274" y="20.3275" width="155.345" height="159.345" filterUnits="userSpaceOnUse" color-interpolation-filters="sRGB">
<feFlood flood-opacity="0" result="BackgroundImageFix"/>
<feColorMatrix in="SourceAlpha" type="matrix" values="0 0 0 0 0 0 0 0 0 0 0 0 0 0 0 0 0 0 127 0" result="hardAlpha"/>
<feOffset dx="-4" dy="8"/>
<feComposite in2="hardAlpha" operator="out"/>
<feColorMatrix type="matrix" values="0 0 0 0 0.192157 0 0 0 0 0.188235 0 0 0 0 0.2 0 0 0 0.25 0"/>
<feBlend mode="normal" in2="BackgroundImageFix" result="effect1_dropShadow_2131_4"/>
<feBlend mode="normal" in="SourceGraphic" in2="effect1_dropShadow_2131_4" result="shape"/>
</filter>
</defs>
</svg>
