<svg width="200" height="200" viewBox="0 0 200 200" fill="none" xmlns="http://www.w3.org/2000/svg">
<path d="M166.333 31L149.667 151.833L99.6667 168.5L49.6667 151.833L33 31H166.333Z" fill="#F7DF1E"/>
<path d="M62.1667 64.3333H87.1667V131L70.5 122.667" fill="#F7DF1E"/>
<path d="M137.167 64.3333H116.333C115.228 64.3333 114.168 64.7723 113.387 65.5537C112.606 66.3351 112.167 67.3949 112.167 68.5V93.5C112.167 94.6051 112.606 95.6649 113.387 96.4463C114.168 97.2277 115.228 97.6667 116.333 97.6667H128.192C128.788 97.6668 129.378 97.7949 129.92 98.0424C130.463 98.2899 130.946 98.651 131.337 99.1013C131.728 99.5516 132.018 100.081 132.187 100.653C132.356 101.225 132.4 101.826 132.317 102.417L128.833 126.833L112.167 131" fill="#F7DF1E"/>
<path d="M62.1667 64.3333H87.1667V131L70.5 122.667M137.167 64.3333H116.333C115.228 64.3333 114.168 64.7723 113.387 65.5537C112.606 66.3351 112.167 67.3949 112.167 68.5V93.5C112.167 94.6051 112.606 95.6649 113.387 96.4463C114.168 97.2277 115.228 97.6667 116.333 97.6667H128.192C128.788 97.6668 129.378 97.7949 129.92 98.0424C130.463 98.2899 130.946 98.651 131.337 99.1013C131.728 99.5516 132.018 100.081 132.187 100.653C132.356 101.225 132.4 101.826 132.317 102.417L128.833 126.833L112.167 131M166.333 31L149.667 151.833L99.6667 168.5L49.6667 151.833L33 31H166.333Z" stroke="#F8F8F6" stroke-width="12" stroke-linecap="round" stroke-linejoin="round"/>
</svg>
