<svg width="200" height="203" viewBox="0 0 200 203" fill="none" xmlns="http://www.w3.org/2000/svg">
<path d="M96 184.667V173.742C79.2734 155.794 66.8293 143.276 58.6748 132.034C50.1222 120.243 46 109.5 46 94.8914C46 55.5889 73.3184 33.8659 97.5293 14.8543C98.9794 13.7156 101.021 13.7156 102.471 14.8543C126.682 33.8659 154 55.5889 154 94.8914C154 109.5 149.878 120.243 141.325 132.034C133.171 143.276 120.727 155.794 104 173.742V184.667L103.995 184.872C103.888 186.986 102.14 188.667 100 188.667C97.791 188.667 96.0002 186.876 96 184.667Z" fill="#F8F8F6" stroke="#F8F8F6" stroke-width="8" stroke-linecap="round" stroke-linejoin="round"/>
<path d="M92.5879 8.5625C96.9382 5.14642 103.062 5.14642 107.412 8.5625C131.233 27.2675 162 51.2193 162 94.8916L161.986 96.4307C161.695 112.215 156.89 124.2 147.801 136.73C139.639 147.982 127.379 160.462 112 176.899V184.667L111.996 184.977C111.832 191.46 106.524 196.667 100 196.667C93.3724 196.667 88.0003 191.294 88 184.667V176.899C72.621 160.462 60.3608 147.982 52.1992 136.73C42.8171 123.796 38 111.442 38 94.8916L38.0059 93.8711C38.4807 50.8451 68.9536 27.1213 92.5879 8.5625ZM88 43.5557C72.6235 57.6968 62 72.8741 62 94.8916L62.0078 95.8877C62.1747 106.089 64.9498 113.434 71.626 122.639C75.7207 128.284 81.0448 134.318 88 141.816V43.5557ZM112 141.816C118.955 134.318 124.279 128.284 128.374 122.639C135.266 113.138 138 105.617 138 94.8916C138 72.8741 127.377 57.6968 112 43.5557V141.816Z" fill="#00684A" stroke="#F8F8F6" stroke-width="12" stroke-linecap="round" stroke-linejoin="round"/>
</svg>
