<svg width="200" height="200" viewBox="0 0 200 200" fill="none" xmlns="http://www.w3.org/2000/svg">
<mask id="path-1-outside-1_2053_133" maskUnits="userSpaceOnUse" x="12.9695" y="13.0397" width="175" height="175" fill="black">
<rect fill="white" x="12.9695" y="13.0397" width="175" height="175"/>
<path d="M75.0008 125V74.9999L139.542 163.75C123.571 173.671 104.455 177.23 85.9831 173.724C67.5109 170.218 51.0295 159.901 39.8039 144.818C28.5783 129.735 23.4275 110.985 25.3717 92.284C27.316 73.5828 36.2136 56.294 50.3019 43.8426C64.3902 31.3912 82.6413 24.6856 101.44 25.0541C120.238 25.4226 138.212 32.8385 151.802 45.8325C165.391 58.8265 173.604 76.4507 174.814 95.2138C176.024 113.977 170.142 132.51 158.334 147.142"/>
<path d="M125 100V75V100Z"/>
</mask>
<path d="M75.0008 125V74.9999L139.542 163.75C123.571 173.671 104.455 177.23 85.9831 173.724C67.5109 170.218 51.0295 159.901 39.8039 144.818C28.5783 129.735 23.4275 110.985 25.3717 92.284C27.316 73.5828 36.2136 56.294 50.3019 43.8426C64.3902 31.3912 82.6413 24.6856 101.44 25.0541C120.238 25.4226 138.212 32.8385 151.802 45.8325C165.391 58.8265 173.604 76.4507 174.814 95.2138C176.024 113.977 170.142 132.51 158.334 147.142" fill="#F8F8F6"/>
<path d="M125 100V75V100Z" fill="#F8F8F6"/>
<path d="M63.0008 125C63.0008 131.627 68.3734 137 75.0008 137C81.6282 137 87.0008 131.627 87.0008 125H75.0008H63.0008ZM75.0008 74.9999L84.7058 67.9421C81.6488 63.7385 76.233 61.9808 71.29 63.5881C66.3471 65.1954 63.0008 69.8022 63.0008 74.9999H75.0008ZM139.542 163.75L145.874 173.944C148.707 172.184 150.68 169.325 151.319 166.053C151.959 162.78 151.209 159.389 149.248 156.692L139.542 163.75ZM148.996 139.605C144.834 144.763 145.64 152.318 150.798 156.48C155.955 160.642 163.51 159.835 167.672 154.678L158.334 147.142L148.996 139.605ZM113 100C113 106.627 118.373 112 125 112C131.627 112 137 106.627 137 100H125H113ZM137 75C137 68.3726 131.627 63 125 63C118.373 63 113 68.3726 113 75H125H137ZM75.0008 125H87.0008V74.9999H75.0008H63.0008V125H75.0008ZM75.0008 74.9999L65.2958 82.0577L129.837 170.808L139.542 163.75L149.248 156.692L84.7058 67.9421L75.0008 74.9999ZM139.542 163.75L133.211 153.556C119.795 161.89 103.738 164.88 88.221 161.935L85.9831 173.724L83.7453 185.513C105.173 189.581 127.347 185.452 145.874 173.944L139.542 163.75ZM85.9831 173.724L88.221 161.935C72.7043 158.989 58.8599 150.323 49.4304 137.653L39.8039 144.818L30.1774 151.982C43.1991 169.479 62.3175 181.446 83.7453 185.513L85.9831 173.724ZM39.8039 144.818L49.4304 137.653C40.0009 124.983 35.6742 109.234 37.3074 93.5249L25.3717 92.284L13.4361 91.0431C11.1807 112.737 17.1557 134.486 30.1774 151.982L39.8039 144.818ZM25.3717 92.284L37.3074 93.5249C38.9406 77.8159 46.4146 63.2933 58.2487 52.8341L50.3019 43.8426L42.3551 34.8511C26.0127 49.2947 15.6915 69.3497 13.4361 91.0431L25.3717 92.284ZM50.3019 43.8426L58.2487 52.8341C70.0829 42.375 85.4138 36.7422 101.205 37.0518L101.44 25.0541L101.675 13.0564C79.8688 12.6289 58.6974 20.4074 42.3551 34.8511L50.3019 43.8426ZM101.44 25.0541L101.205 37.0518C116.995 37.3614 132.094 43.5907 143.509 54.5056L151.802 45.8325L160.095 37.1593C144.331 22.0863 123.481 13.4839 101.675 13.0564L101.44 25.0541ZM151.802 45.8325L143.509 54.5056C154.924 65.4206 161.823 80.225 162.839 95.986L174.814 95.2138L186.789 94.4417C185.386 72.6765 175.859 52.2324 160.095 37.1593L151.802 45.8325ZM174.814 95.2138L162.839 95.986C163.855 111.747 158.915 127.315 148.996 139.605L158.334 147.142L167.672 154.678C181.37 137.705 188.193 116.207 186.789 94.4417L174.814 95.2138ZM125 100H137V75H125H113V100H125Z" fill="#F8F8F6" mask="url(#path-1-outside-1_2053_133)"/>
<path d="M42.3555 34.8513C58.6977 20.4078 79.8687 12.6289 101.675 13.0563C123.481 13.4838 144.331 22.0861 160.095 37.1589C175.858 52.2319 185.386 72.6769 186.789 94.4421C188.192 116.207 181.37 137.706 167.673 154.678C163.511 159.835 155.956 160.642 150.799 156.48H150.798C145.641 152.318 144.834 144.764 148.995 139.606L148.996 139.605C158.915 127.315 163.856 111.747 162.84 95.986C161.824 80.2253 154.924 65.4205 143.509 54.5056C132.094 43.5909 116.995 37.362 101.204 37.0524C85.4135 36.743 70.083 42.3757 58.249 52.8347C46.4151 63.2937 38.9409 77.8162 37.3076 93.5251C35.6745 109.234 40.0013 124.984 49.4307 137.654C58.8601 150.324 72.7052 158.99 88.2217 161.935C99.4119 164.059 110.882 163.092 121.441 159.263L87.001 111.904V125C87.001 131.627 81.6283 137 75.001 137C68.3737 137 63.001 131.627 63.001 125V74.9997C63.0012 69.8028 66.3467 65.195 71.29 63.5876C76.2341 61.98 81.6498 63.7396 84.7061 67.9421L149.248 156.692V156.693C151.147 159.305 151.912 162.568 151.376 165.745L151.32 166.052C150.7 169.223 148.828 172.005 146.138 173.775L145.875 173.943C127.348 185.451 105.173 189.581 83.7451 185.513C62.3175 181.446 43.1993 169.478 30.1777 151.982C17.1562 134.486 11.1813 112.737 13.4365 91.0436C15.6919 69.3501 26.0132 49.2948 42.3555 34.8513ZM125 62.9997C131.628 62.9998 137 68.3731 137 74.9997V99.9997C137 106.627 131.627 112 125 112C118.373 111.999 113 106.627 113 99.9997V74.9997C113 68.3729 118.373 63 125 62.9997Z" fill="#171717" stroke="#F8F8F6" stroke-width="12" stroke-linecap="round" stroke-linejoin="round"/>
</svg>
