<svg width="200" height="203" viewBox="0 0 200 203" fill="none" xmlns="http://www.w3.org/2000/svg">
<mask id="path-1-outside-1_2053_128" maskUnits="userSpaceOnUse" x="13" y="6.00002" width="174" height="191" fill="black">
<rect fill="white" x="13" y="6.00002" width="174" height="191"/>
<path d="M75 76.2079V143.241C74.9995 146.163 74.2307 149.034 72.7708 151.565C71.3109 154.096 69.2111 156.199 66.682 157.663C64.153 159.127 61.2835 159.9 58.3614 159.905C55.4393 159.91 52.5673 159.146 50.0333 157.691L36.9667 150.191C33.3104 147.957 30.2895 144.822 28.194 141.084C26.0985 137.347 24.9987 133.134 25 128.85V73.5579C25.0001 69.2747 26.1006 65.0633 28.1961 61.3277C30.2915 57.5921 33.3116 54.4575 36.9667 52.2245L86.9667 21.6662C90.8912 19.2686 95.401 18 100 18C104.599 18 109.109 19.2686 113.033 21.6662L163.033 52.2245C166.69 54.4582 169.71 57.5941 171.806 61.3313C173.901 65.0685 175.001 69.2816 175 73.5662V128.85C175 133.133 173.899 137.344 171.804 141.08C169.708 144.815 166.688 147.95 163.033 150.183L113.033 180.741C109.109 183.139 104.599 184.407 100 184.407C95.401 184.407 90.8912 183.139 86.9667 180.741"/>
<path d="M141.667 76.208H112.5C109.185 76.208 106.005 77.5249 103.661 79.8691C101.317 82.2133 100 85.3928 100 88.708C100 92.0232 101.317 95.2026 103.661 97.5468C106.005 99.891 109.185 101.208 112.5 101.208H129.167C132.482 101.208 135.661 102.525 138.005 104.869C140.35 107.213 141.667 110.393 141.667 113.708C141.667 117.023 140.35 120.203 138.005 122.547C135.661 124.891 132.482 126.208 129.167 126.208H100"/>
</mask>
<path d="M75 76.2079V143.241C74.9995 146.163 74.2307 149.034 72.7708 151.565C71.3109 154.096 69.2111 156.199 66.682 157.663C64.153 159.127 61.2835 159.9 58.3614 159.905C55.4393 159.91 52.5673 159.146 50.0333 157.691L36.9667 150.191C33.3104 147.957 30.2895 144.822 28.194 141.084C26.0985 137.347 24.9987 133.134 25 128.85V73.5579C25.0001 69.2747 26.1006 65.0633 28.1961 61.3277C30.2915 57.5921 33.3116 54.4575 36.9667 52.2245L86.9667 21.6662C90.8912 19.2686 95.401 18 100 18C104.599 18 109.109 19.2686 113.033 21.6662L163.033 52.2245C166.69 54.4582 169.71 57.5941 171.806 61.3313C173.901 65.0685 175.001 69.2816 175 73.5662V128.85C175 133.133 173.899 137.344 171.804 141.08C169.708 144.815 166.688 147.95 163.033 150.183L113.033 180.741C109.109 183.139 104.599 184.407 100 184.407C95.401 184.407 90.8912 183.139 86.9667 180.741" fill="#F8F8F6"/>
<path d="M141.667 76.208H112.5C109.185 76.208 106.005 77.5249 103.661 79.8691C101.317 82.2133 100 85.3928 100 88.708C100 92.0232 101.317 95.2026 103.661 97.5468C106.005 99.891 109.185 101.208 112.5 101.208H129.167C132.482 101.208 135.661 102.525 138.005 104.869C140.35 107.213 141.667 110.393 141.667 113.708C141.667 117.023 140.35 120.203 138.005 122.547C135.661 124.891 132.482 126.208 129.167 126.208H100" fill="#F8F8F6"/>
<path d="M87 76.2079C87 69.5804 81.6274 64.2079 75 64.2079C68.3726 64.2079 63 69.5804 63 76.2079H75H87ZM75 143.241L87 143.243V143.241H75ZM50.0333 157.691L56.0093 147.285L56.007 147.284L50.0333 157.691ZM36.9667 150.191L30.7107 160.431C30.804 160.488 30.8981 160.544 30.993 160.599L36.9667 150.191ZM25 128.85L37 128.853V128.85H25ZM25 73.5579L13 73.5576V73.5579H25ZM36.9667 52.2245L43.2227 62.4648L43.2245 62.4637L36.9667 52.2245ZM86.9667 21.6662L80.7107 11.4259L80.7088 11.4271L86.9667 21.6662ZM113.033 21.6662L119.291 11.4271L119.289 11.4259L113.033 21.6662ZM163.033 52.2245L156.776 62.4637L156.777 62.4648L163.033 52.2245ZM175 73.5662L163 73.5624V73.5662H175ZM175 128.85L187 128.85V128.85H175ZM163.033 150.183L156.777 139.943L156.776 139.944L163.033 150.183ZM113.033 180.741L119.289 190.981L119.291 190.98L113.033 180.741ZM93.2227 170.501C87.5671 167.046 80.1815 168.83 76.7264 174.485C73.2713 180.141 75.0551 187.526 80.7107 190.981L86.9667 180.741L93.2227 170.501ZM141.667 88.208C148.294 88.208 153.667 82.8354 153.667 76.208C153.667 69.5806 148.294 64.208 141.667 64.208V76.208V88.208ZM112.5 76.208V64.208V76.208ZM100 88.708H88H100ZM129.167 101.208V89.208V101.208ZM129.167 126.208V138.208V126.208ZM100 114.208C93.3726 114.208 88 119.581 88 126.208C88 132.835 93.3726 138.208 100 138.208V126.208V114.208ZM75 76.2079H63V143.241H75H87V76.2079H75ZM75 143.241L63 143.239C62.9999 144.057 62.7846 144.861 62.3758 145.57L72.7708 151.565L83.1658 157.561C85.6768 153.207 86.9991 148.269 87 143.243L75 143.241ZM72.7708 151.565L62.3758 145.57C61.9671 146.279 61.3791 146.867 60.671 147.277L66.682 157.663L72.6931 168.049C77.0431 165.531 80.6547 161.914 83.1658 157.561L72.7708 151.565ZM66.682 157.663L60.671 147.277C59.9628 147.687 59.1594 147.904 58.3412 147.905L58.3614 159.905L58.3817 171.905C63.4077 171.896 68.3431 170.567 72.6931 168.049L66.682 157.663ZM58.3614 159.905L58.3412 147.905C57.523 147.906 56.7189 147.693 56.0093 147.285L50.0333 157.691L44.0573 168.097C48.4158 170.6 53.3557 171.913 58.3817 171.905L58.3614 159.905ZM50.0333 157.691L56.007 147.284L42.9403 139.784L36.9667 150.191L30.993 160.599L44.0597 168.099L50.0333 157.691ZM36.9667 150.191L43.2227 139.951C41.3214 138.789 39.7506 137.159 38.6609 135.215L28.194 141.084L17.7272 146.953C20.8285 152.484 25.2994 157.126 30.7107 160.431L36.9667 150.191ZM28.194 141.084L38.6609 135.215C37.5712 133.272 36.9993 131.081 37 128.853L25 128.85L13 128.846C12.998 135.187 14.6258 141.422 17.7272 146.953L28.194 141.084ZM25 128.85H37V73.5579H25H13V128.85H25ZM25 73.5579L37 73.5581C37 71.3308 37.5723 69.1409 38.662 67.1984L28.1961 61.3277L17.7302 55.457C14.6289 60.9857 13.0001 67.2185 13 73.5576L25 73.5579ZM28.1961 61.3277L38.662 67.1984C39.7516 65.2559 41.322 63.6259 43.2227 62.4648L36.9667 52.2245L30.7107 41.9843C25.3012 45.2891 20.8314 49.9283 17.7302 55.457L28.1961 61.3277ZM36.9667 52.2245L43.2245 62.4637L93.2245 31.9053L86.9667 21.6662L80.7088 11.4271L30.7089 41.9854L36.9667 52.2245ZM86.9667 21.6662L93.2227 31.9064C95.2634 30.6597 97.6085 30 100 30V18V6.00002C93.1936 6.00002 86.519 7.87751 80.7107 11.4259L86.9667 21.6662ZM100 18V30C102.391 30 104.737 30.6597 106.777 31.9064L113.033 21.6662L119.289 11.4259C113.481 7.87751 106.806 6.00002 100 6.00002V18ZM113.033 21.6662L106.776 31.9053L156.776 62.4637L163.033 52.2245L169.291 41.9854L119.291 11.4271L113.033 21.6662ZM163.033 52.2245L156.777 62.4648C158.679 63.6263 160.249 65.257 161.339 67.2003L171.806 61.3313L182.273 55.4624C179.171 49.9313 174.701 45.2902 169.289 41.9843L163.033 52.2245ZM171.806 61.3313L161.339 67.2003C162.429 69.1437 163.001 71.3344 163 73.5624L175 73.5662L187 73.57C187.002 67.2287 185.374 60.9934 182.273 55.4624L171.806 61.3313ZM175 73.5662H163V128.85H175H187V73.5662H175ZM175 128.85L163 128.849C163 131.077 162.428 133.266 161.338 135.209L171.804 141.08L182.27 146.95C185.371 141.422 187 135.189 187 128.85L175 128.85ZM171.804 141.08L161.338 135.209C160.248 137.152 158.678 138.782 156.777 139.943L163.033 150.183L169.289 160.423C174.699 157.118 179.169 152.479 182.27 146.95L171.804 141.08ZM163.033 150.183L156.776 139.944L106.776 170.502L113.033 180.741L119.291 190.98L169.291 160.422L163.033 150.183ZM113.033 180.741L106.777 170.501C104.737 171.748 102.392 172.407 100 172.407V184.407V196.407C106.806 196.407 113.481 194.53 119.289 190.981L113.033 180.741ZM100 184.407V172.407C97.6085 172.407 95.2634 171.748 93.2227 170.501L86.9667 180.741L80.7107 190.981C86.519 194.53 93.1936 196.407 100 196.407V184.407ZM141.667 76.208V64.208H112.5V76.208V88.208H141.667V76.208ZM112.5 76.208V64.208C106.002 64.208 99.7705 66.7892 95.1759 71.3839L103.661 79.8691L112.146 88.3544C112.24 88.2607 112.367 88.208 112.5 88.208V76.208ZM103.661 79.8691L95.1759 71.3839C90.5812 75.9785 88 82.2102 88 88.708H100H112C112 88.5754 112.053 88.4482 112.146 88.3544L103.661 79.8691ZM100 88.708H88C88 95.2058 90.5812 101.437 95.1759 106.032L103.661 97.5468L112.146 89.0615C112.053 88.9678 112 88.8406 112 88.708H100ZM103.661 97.5468L95.1759 106.032C99.7705 110.627 106.002 113.208 112.5 113.208V101.208V89.208C112.367 89.208 112.24 89.1553 112.146 89.0615L103.661 97.5468ZM112.5 101.208V113.208H129.167V101.208V89.208H112.5V101.208ZM129.167 101.208V113.208C129.299 113.208 129.426 113.261 129.52 113.354L138.005 104.869L146.491 96.3839C141.896 91.7892 135.664 89.208 129.167 89.208V101.208ZM138.005 104.869L129.52 113.354C129.614 113.448 129.667 113.575 129.667 113.708H141.667H153.667C153.667 107.21 151.085 100.978 146.491 96.3839L138.005 104.869ZM141.667 113.708H129.667C129.667 113.841 129.614 113.968 129.52 114.062L138.005 122.547L146.491 131.032C151.085 126.437 153.667 120.206 153.667 113.708H141.667ZM138.005 122.547L129.52 114.062C129.426 114.155 129.299 114.208 129.167 114.208V126.208V138.208C135.664 138.208 141.896 135.627 146.491 131.032L138.005 122.547ZM129.167 126.208V114.208H100V126.208V138.208H129.167V126.208Z" fill="#F8F8F6" mask="url(#path-1-outside-1_2053_128)"/>
<path d="M100 6C106.594 6 113.064 7.76239 118.742 11.0986C118.757 11.1074 118.772 11.1162 118.787 11.125L119.245 11.3994L119.29 11.4287L119.291 11.4277L169.289 41.9844L169.794 42.2979C174.979 45.5807 179.268 50.1039 182.272 55.4619L182.559 55.9824C185.473 61.3816 187.001 67.4243 187 73.5664V128.896L186.996 129.395C186.996 129.411 186.995 129.428 186.995 129.444C186.896 135.578 185.275 141.595 182.271 146.95C179.177 152.465 174.721 157.093 169.331 160.396C169.317 160.404 169.305 160.414 169.291 160.422L119.307 190.969C119.301 190.973 119.295 190.978 119.289 190.981C113.481 194.53 106.806 196.407 100 196.407C93.4064 196.407 86.9364 194.646 81.2578 191.31L80.7109 190.981C75.0556 187.526 73.2715 180.141 76.7266 174.485L76.8916 174.223C80.4122 168.775 87.6555 167.1 93.2227 170.501L93.6084 170.728C95.5563 171.827 97.7577 172.407 100 172.407C102.232 172.407 104.424 171.831 106.366 170.74L106.843 170.46L156.759 139.954C156.765 139.95 156.771 139.946 156.777 139.942C158.679 138.781 160.249 137.151 161.338 135.209C162.427 133.267 163 131.077 163 128.85V73.5625C163.001 71.3348 162.429 69.1437 161.339 67.2002C160.249 65.257 158.679 63.6263 156.777 62.4648C156.771 62.461 156.765 62.4561 156.759 62.4521L106.775 31.9053C106.772 31.9034 106.77 31.9013 106.767 31.8994C104.729 30.6572 102.388 30 100 30C97.6077 30 95.2624 30.6593 93.2227 31.9053L93.2217 31.9043L43.2402 62.4521C43.2341 62.4559 43.2288 62.4611 43.2227 62.4648C41.3215 63.6263 39.7514 65.2564 38.6621 67.1982C37.5728 69.1402 37.0001 71.33 37 73.5576V128.854C36.9993 131.081 37.5713 133.271 38.6611 135.215C39.7351 137.13 41.2768 138.741 43.1406 139.898L56.0068 147.283C56.0077 147.284 56.0089 147.285 56.0098 147.285L56.2803 147.429C56.921 147.743 57.6265 147.906 58.3418 147.905C59.1581 147.904 59.9615 147.687 60.6709 147.276C61.3791 146.866 61.9674 146.278 62.376 145.569C62.7844 144.861 62.9995 144.058 63 143.241V76.208C63 69.5806 68.3726 64.208 75 64.208C81.6274 64.208 87 69.5806 87 76.208V143.243C86.9991 148.269 85.677 153.207 83.166 157.561C80.655 161.914 77.0433 165.532 72.6934 168.05C68.3434 170.567 63.4067 171.897 58.3809 171.905C53.3551 171.914 48.4148 170.6 44.0566 168.098C44.048 168.093 44.0398 168.087 44.0312 168.082L30.9932 160.599H30.9922C30.9137 160.554 30.8178 160.497 30.7119 160.433L30.7109 160.432C25.2994 157.126 20.8287 152.484 17.7275 146.953C14.6264 141.422 12.998 135.187 13 128.846V73.5576L13.0049 72.9639C13.1034 66.83 14.7252 60.813 17.7295 55.457C20.7336 50.1016 25.0221 45.5799 30.2051 42.2979L30.71 41.9844L80.6924 11.4385C80.6988 11.4346 80.7046 11.4297 80.7109 11.4258C86.5192 7.87744 93.1937 6 100 6ZM141.667 64.208C148.294 64.2084 153.667 69.5804 153.667 76.208L153.663 76.5176C153.501 82.8992 148.358 88.0423 141.977 88.2041L141.667 88.208H112.5C112.366 88.208 112.238 88.2609 112.146 88.3535C112.053 88.4462 112 88.5738 112 88.708L112.01 88.8057C112.029 88.9019 112.076 88.9912 112.146 89.0615H112.146C112.24 89.1558 112.368 89.208 112.5 89.208H129.167C135.665 89.2081 141.896 91.7905 146.49 96.3848H146.491C151.085 100.979 153.667 107.21 153.667 113.708L153.659 114.316C153.503 120.594 150.941 126.581 146.491 131.031H146.49C142.04 135.482 136.053 138.044 129.775 138.2L129.167 138.208H100C93.3725 138.208 88.0001 132.835 88 126.208C88 119.581 93.3726 114.208 100 114.208H129.167L129.264 114.198C129.359 114.179 129.449 114.132 129.52 114.062L129.583 113.984C129.638 113.902 129.667 113.806 129.667 113.708C129.667 113.576 129.614 113.449 129.521 113.354C129.45 113.284 129.361 113.237 129.265 113.218L129.167 113.208H112.5C106.002 113.208 99.771 110.626 95.1768 106.031C90.5825 101.437 88 95.2063 88 88.708C88 82.2097 90.5825 75.979 95.1768 71.3848C99.7711 66.7905 106.002 64.208 112.5 64.208H141.667Z" fill="#3C873A" stroke="#F8F8F6" stroke-width="12" stroke-linecap="round" stroke-linejoin="round"/>
</svg>
