<svg width="216" height="200" viewBox="0 0 216 200" fill="none" xmlns="http://www.w3.org/2000/svg">
<path d="M199.333 61.6667C202.094 61.6667 204.333 63.9052 204.333 66.6667V125C204.333 127.761 202.094 130 199.333 130H104.333V141.667C104.333 144.428 102.094 146.667 99.333 146.667H66C63.2386 146.667 61 144.428 61 141.667V130H16C13.2386 130 11 127.761 11 125V66.6667C11 63.9052 13.2386 61.6667 16 61.6667H199.333Z" fill="#F8F8F6" stroke="black" stroke-width="10" stroke-linecap="round" stroke-linejoin="round"/>
<path d="M199.333 55.6667C205.408 55.6667 210.333 60.5915 210.333 66.6667V125C210.333 131.075 205.408 136 199.333 136H110.333V141.667C110.333 147.742 105.408 152.667 99.333 152.667H66C59.9249 152.667 55 147.742 55 141.667V136H16C9.92487 136 5 131.075 5 125V66.6667C5 60.5915 9.92487 55.6667 16 55.6667H199.333ZM77 130.667H88.333V125L88.3477 124.433C88.6426 118.622 93.4482 114 99.333 114H113.333V77.6667H77V130.667ZM135.333 114H138.333V91.6667C138.333 85.5914 143.259 80.667 149.333 80.6667C155.408 80.6667 160.333 85.5915 160.333 91.6667V114H163.333V91.6667C163.333 85.5914 168.259 80.667 174.333 80.6667C180.408 80.6667 185.333 85.5915 185.333 91.6667V114H188.333V77.6667H135.333V114ZM27 114H30V91.6667C30 85.5915 34.9249 80.6667 41 80.6667C47.0751 80.6667 52 85.5915 52 91.6667V114H55V77.6667H27V114ZM99.333 80.6667C105.408 80.6667 110.333 85.5915 110.333 91.6667V99.9997C110.333 106.075 105.408 111 99.333 111C93.2585 110.999 88.333 106.075 88.333 99.9997V91.6667C88.333 85.5914 93.2585 80.667 99.333 80.6667Z" fill="#CB3837" stroke="#F8F8F6" stroke-width="10" stroke-linecap="round" stroke-linejoin="round"/>
</svg>
