<svg width="200" height="200" viewBox="0 0 200 200" fill="none" xmlns="http://www.w3.org/2000/svg">
<path fill-rule="evenodd" clip-rule="evenodd" d="M83.3332 100H87.4998L66.6665 141.667V116.667C66.6665 112.246 68.4225 108.007 71.5481 104.882C74.6737 101.756 78.9129 100 83.3332 100Z" fill="#FFD748"/>
<path fill-rule="evenodd" clip-rule="evenodd" d="M83.3332 100H99.9998L133.333 125V158.333C133.333 162.754 131.577 166.993 128.452 170.118C125.326 173.244 121.087 175 116.667 175H83.3332C78.9129 175 74.6737 173.244 71.5481 170.118C68.4225 166.993 66.6665 162.754 66.6665 158.333V141.667V116.667C66.6665 112.246 68.4225 108.007 71.5481 104.882C74.6737 101.756 78.9129 100 83.3332 100Z" fill="#FFD748"/>
<path d="M91.6665 50V50.0833V50Z" fill="#FFD748"/>
<path d="M108.333 150V150.083V150Z" fill="#FFD748"/>
<path d="M158.333 125H133.333V158.333C133.333 162.754 131.577 166.993 128.452 170.118C125.326 173.244 121.087 175 116.667 175H83.3332C78.9129 175 74.6737 173.244 71.5481 170.118C68.4225 166.993 66.6665 162.754 66.6665 158.333V141.667V116.667C66.6665 112.246 68.4225 108.007 71.5481 104.882C74.6737 101.756 78.9129 100 83.3332 100H99.9998H112.5H116.667C121.087 100 125.326 98.244 128.452 95.1184C131.577 91.9928 133.333 87.7536 133.333 83.3333V58.3333H158.333C162.753 58.3333 166.993 60.0893 170.118 63.2149C173.244 66.3405 175 70.5797 175 75V108.333C175 112.754 173.244 116.993 170.118 120.118C166.993 123.244 162.753 125 158.333 125Z" fill="#FFD748"/>
<path fill-rule="evenodd" clip-rule="evenodd" d="M66.6667 75H100L87.5 100H83.3333C78.9131 100 74.6738 101.756 71.5482 104.882C68.4226 108.007 66.6667 112.246 66.6667 116.667V141.667H41.6667C37.2464 141.667 33.0072 139.911 29.8816 136.785C26.7559 133.66 25 129.42 25 125V91.6667C25 87.2464 26.7559 83.0072 29.8816 79.8816C33.0072 76.7559 37.2464 75 41.6667 75H66.6667Z" fill="#3774A7"/>
<path fill-rule="evenodd" clip-rule="evenodd" d="M133.333 58.3333L112.5 100H116.667C121.087 100 125.326 98.244 128.452 95.1184C131.577 91.9928 133.333 87.7536 133.333 83.3333V58.3333Z" fill="#3774A7"/>
<path d="M91.6667 50V50.0833V50Z" fill="#3774A7"/>
<path d="M108.333 150V150.083V150Z" fill="#3774A7"/>
<path d="M41.6667 75H66.6667V41.6667C66.6667 37.2464 68.4226 33.0072 71.5482 29.8816C74.6738 26.7559 78.9131 25 83.3333 25H116.667C121.087 25 125.326 26.7559 128.452 29.8816C131.577 33.0072 133.333 37.2464 133.333 41.6667V58.3333V83.3333C133.333 87.7536 131.577 91.9928 128.452 95.1184C125.326 98.244 121.087 100 116.667 100H100H83.3333C78.9131 100 74.6738 101.756 71.5482 104.882C68.4226 108.007 66.6667 112.246 66.6667 116.667V141.667H41.6667C37.2464 141.667 33.0072 139.911 29.8816 136.785C26.7559 133.66 25 129.42 25 125V91.6667C25 87.2464 26.7559 83.0072 29.8816 79.8816C33.0072 76.7559 37.2464 75 41.6667 75Z" fill="#3774A7"/>
<path d="M100 75H41.6667C37.2464 75 33.0072 76.7559 29.8816 79.8816C26.7559 83.0072 25 87.2464 25 91.6667V125C25 129.42 26.7559 133.659 29.8816 136.785C33.0072 139.911 37.2464 141.667 41.6667 141.667H66.6667M100 125H158.333C162.754 125 166.993 123.244 170.118 120.118C173.244 116.993 175 112.754 175 108.333V75C175 70.5797 173.244 66.3405 170.118 63.2149C166.993 60.0893 162.754 58.3333 158.333 58.3333H133.333M66.6667 75V41.6667C66.6667 37.2464 68.4226 33.0072 71.5482 29.8816C74.6738 26.7559 78.9131 25 83.3333 25H116.667C121.087 25 125.326 26.7559 128.452 29.8816C131.577 33.0072 133.333 37.2464 133.333 41.6667V83.3333C133.333 87.7536 131.577 91.9928 128.452 95.1184C125.326 98.244 121.087 100 116.667 100H83.3333C78.9131 100 74.6738 101.756 71.5482 104.882C68.4226 108.007 66.6667 112.246 66.6667 116.667V158.333C66.6667 162.754 68.4226 166.993 71.5482 170.118C74.6738 173.244 78.9131 175 83.3333 175H116.667C121.087 175 125.326 173.244 128.452 170.118C131.577 166.993 133.333 162.754 133.333 158.333V125M91.6667 50V50.0833M108.333 150V150.083" stroke="#F8F8F6" stroke-width="12" stroke-linecap="round" stroke-linejoin="round"/>
</svg>
