<svg width="203" height="200" viewBox="0 0 203 200" fill="none" xmlns="http://www.w3.org/2000/svg">
<mask id="path-1-outside-1_2053_138" maskUnits="userSpaceOnUse" x="6" y="11.9982" width="191" height="176" fill="black">
<rect fill="white" x="6" y="11.9982" width="191" height="176"/>
<path d="M54.3083 75C32.3333 80.6667 18 90.375 18 101.458C18 119.017 54.7083 133.333 100.083 133.333C106.25 133.333 110.583 133.008 116.333 132.525"/>
<path d="M83.3093 132.5C79.8676 127.533 76.5926 123.058 73.4759 117.5C50.5509 76.6668 44.4093 36.0834 59.8926 26.8918C69.4759 21.0834 85.2843 29.0001 101.343 45.6751"/>
<path d="M54.9081 128.225C49.0581 150.625 50.2414 167.525 59.5748 173.183C74.4331 182.183 104.466 156.867 126.6 116.483C129.6 110.9 132.291 105.408 134.666 100"/>
<path d="M101.333 154.333C117.4 171 133.142 178.917 142.817 173.108C158.233 163.925 152.158 123.342 129.208 82.5001C126.008 76.8584 122.733 72.4667 119.375 67.5001"/>
<path d="M148.5 125C170.266 119.275 184.666 109.583 184.666 98.5333C184.666 80.95 147.933 66.6667 102.625 66.6667C96.3996 66.6667 92.0746 66.9083 86.3329 67.3917"/>
<path d="M68 100C70.375 94.5 73.0583 89.1 76.0667 83.5167C98.125 43.15 128.175 17.7667 143.117 26.8417C152.367 32.5 153.633 49.3917 147.783 71.7834"/>
<path d="M103.5 100.125H103.417C103.333 101.208 102.417 102.125 101.25 102.125C100.692 102.097 100.166 101.858 99.7783 101.455C99.3911 101.052 99.1723 100.517 99.1666 99.9583C99.1666 98.7917 100.083 97.875 101.167 97.875H101.083C102.167 97.7917 103.167 98.7917 103.167 99.875"/>
</mask>
<path d="M54.3083 75C32.3333 80.6667 18 90.375 18 101.458C18 119.017 54.7083 133.333 100.083 133.333C106.25 133.333 110.583 133.008 116.333 132.525" fill="#F8F8F6"/>
<path d="M83.3093 132.5C79.8676 127.533 76.5926 123.058 73.4759 117.5C50.5509 76.6668 44.4093 36.0834 59.8926 26.8918C69.4759 21.0834 85.2843 29.0001 101.343 45.6751" fill="#F8F8F6"/>
<path d="M54.9081 128.225C49.0581 150.625 50.2414 167.525 59.5748 173.183C74.4331 182.183 104.466 156.867 126.6 116.483C129.6 110.9 132.291 105.408 134.666 100" fill="#F8F8F6"/>
<path d="M101.333 154.333C117.4 171 133.142 178.917 142.817 173.108C158.233 163.925 152.158 123.342 129.208 82.5001C126.008 76.8584 122.733 72.4667 119.375 67.5001" fill="#F8F8F6"/>
<path d="M148.5 125C170.266 119.275 184.666 109.583 184.666 98.5333C184.666 80.95 147.933 66.6667 102.625 66.6667C96.3996 66.6667 92.0746 66.9083 86.3329 67.3917" fill="#F8F8F6"/>
<path d="M68 100C70.375 94.5 73.0583 89.1 76.0667 83.5167C98.125 43.15 128.175 17.7667 143.117 26.8417C152.367 32.5 153.633 49.3917 147.783 71.7834" fill="#F8F8F6"/>
<path d="M103.5 100.125H103.417C103.333 101.208 102.417 102.125 101.25 102.125C100.692 102.097 100.166 101.858 99.7783 101.455C99.3911 101.052 99.1723 100.517 99.1666 99.9583C99.1666 98.7917 100.083 97.875 101.167 97.875H101.083C102.167 97.7917 103.167 98.7917 103.167 99.875" fill="#F8F8F6"/>
<path d="M57.3047 86.6199C63.7222 84.965 67.5831 78.4211 65.9282 72.0036C64.2733 65.5861 57.7294 61.7253 51.3119 63.3801L54.3083 75L57.3047 86.6199ZM117.338 144.483C123.943 143.928 128.846 138.124 128.291 131.52C127.736 124.916 121.932 120.012 115.328 120.567L116.333 132.525L117.338 144.483ZM73.446 139.335C77.2207 144.782 84.6967 146.138 90.1441 142.363C95.5915 138.589 96.9474 131.113 93.1726 125.665L83.3093 132.5L73.446 139.335ZM73.4759 117.5L83.9428 111.631L83.9396 111.625L73.4759 117.5ZM59.8926 26.8918L66.0183 37.2105C66.0498 37.1918 66.0811 37.173 66.1124 37.154L59.8926 26.8918ZM92.699 53.999C97.2962 58.7728 104.893 58.9159 109.667 54.3187C114.44 49.7215 114.583 42.1249 109.986 37.3511L101.343 45.6751L92.699 53.999ZM66.5187 131.257C68.1933 124.845 64.3527 118.289 57.9403 116.614C51.528 114.94 44.9722 118.78 43.2975 125.193L54.9081 128.225L66.5187 131.257ZM59.5748 173.183L53.3537 183.445L53.3577 183.447L59.5748 173.183ZM126.6 116.483L137.123 122.251C137.139 122.222 137.155 122.192 137.17 122.163L126.6 116.483ZM145.654 104.825C148.318 98.7568 145.559 91.6775 139.491 89.0127C133.423 86.348 126.344 89.107 123.679 95.1751L134.666 100L145.654 104.825ZM109.973 146.005C105.373 141.234 97.7764 141.094 93.005 145.694C88.2336 150.294 88.0944 157.89 92.694 162.662L101.333 154.333L109.973 146.005ZM142.817 173.108L136.676 162.799C136.664 162.806 136.652 162.813 136.64 162.82L142.817 173.108ZM129.208 82.5001L139.67 76.6215C139.662 76.6075 139.654 76.5936 139.646 76.5796L129.208 82.5001ZM129.316 60.7784C125.603 55.2882 118.143 53.847 112.653 57.5593C107.163 61.2716 105.722 68.7316 109.434 74.2218L119.375 67.5001L129.316 60.7784ZM145.447 113.395C139.038 115.08 135.209 121.643 136.894 128.052C138.58 134.462 145.143 138.291 151.552 136.605L148.5 125L145.447 113.395ZM85.3263 55.434C78.7223 55.9899 73.8193 61.7942 74.3752 68.3983C74.9312 75.0023 80.7355 79.9053 87.3395 79.3494L86.3329 67.3917L85.3263 55.434ZM56.9833 95.2428C54.3559 101.327 57.1584 108.389 63.2428 111.017C69.3272 113.644 76.3894 110.842 79.0168 104.757L68 100L56.9833 95.2428ZM76.0667 83.5167L65.5363 77.7624C65.525 77.7831 65.5137 77.8039 65.5025 77.8247L76.0667 83.5167ZM143.117 26.8417L149.379 16.6051C149.368 16.5984 149.357 16.5918 149.346 16.5852L143.117 26.8417ZM136.173 68.7501C134.498 75.1623 138.338 81.7184 144.75 83.3937C151.162 85.0689 157.718 81.2288 159.394 74.8167L147.783 71.7834L136.173 68.7501ZM103.5 112.125C110.127 112.125 115.5 106.752 115.5 100.125C115.5 93.4976 110.127 88.125 103.5 88.125V100.125V112.125ZM103.417 100.125V88.125C97.1462 88.125 91.9329 92.9527 91.4519 99.2046L103.417 100.125ZM101.25 102.125L100.657 114.11C100.855 114.12 101.052 114.125 101.25 114.125V102.125ZM99.1666 99.9583H87.1666C87.1666 99.9991 87.1668 100.04 87.1672 100.081L99.1666 99.9583ZM101.167 109.875C107.794 109.875 113.167 104.502 113.167 97.875C113.167 91.2476 107.794 85.875 101.167 85.875V97.875V109.875ZM101.083 97.875L100.163 85.9103C93.7337 86.4049 88.8446 91.892 89.0921 98.3355C89.3396 104.779 94.635 109.875 101.083 109.875V97.875ZM91.1666 99.875C91.1666 106.502 96.5392 111.875 103.167 111.875C109.794 111.875 115.167 106.502 115.167 99.875H103.167H91.1666ZM54.3083 75L51.3119 63.3801C39.5031 66.4253 28.8924 70.7529 20.9394 76.4326C13.1972 81.9619 6 90.3068 6 101.458H18H30C30 101.403 29.9884 100.98 30.5995 100.054C31.264 99.0463 32.5647 97.6222 34.8876 95.9633C39.5951 92.6013 47.1386 89.2414 57.3047 86.6199L54.3083 75ZM18 101.458H6C6 110.351 10.6932 117.51 16.3281 122.685C21.9562 127.853 29.4386 131.961 37.6771 135.164C54.231 141.601 76.2929 145.333 100.083 145.333V133.333V121.333C78.4988 121.333 59.5191 117.907 46.375 112.796C39.7645 110.226 35.2339 107.462 32.5612 105.008C31.2611 103.814 30.5975 102.873 30.2809 102.272C29.9921 101.725 30 101.487 30 101.458H18ZM100.083 133.333V145.333C106.762 145.333 111.495 144.974 117.338 144.483L116.333 132.525L115.328 120.567C109.671 121.043 105.738 121.333 100.083 121.333V133.333ZM83.3093 132.5L93.1726 125.665C89.5273 120.405 86.7029 116.553 83.9428 111.631L73.4759 117.5L63.0091 123.369C66.4824 129.563 70.2079 134.662 73.446 139.335L83.3093 132.5ZM73.4759 117.5L83.9396 111.625C73.0078 92.1541 66.3485 73.1831 64.1478 58.5461C63.0413 51.1869 63.158 45.5498 63.9867 41.7273C64.3912 39.8617 64.9083 38.6942 65.3198 38.0233C65.7009 37.4019 65.962 37.2439 66.0183 37.2105L59.8926 26.8918L53.7669 16.573C46.0134 21.1759 42.1841 29.0196 40.5316 36.6424C38.8735 44.2905 39.0554 53.0748 40.4145 62.1145C43.1451 80.2754 51.0191 102.013 63.0123 123.375L73.4759 117.5ZM59.8926 26.8918L66.1124 37.154C66.148 37.1324 66.2143 37.096 66.3696 37.0615C66.5383 37.0241 66.8753 36.976 67.431 37.0095C68.5995 37.0801 70.4818 37.4986 73.1181 38.7279C78.4575 41.2177 85.247 46.2608 92.699 53.999L101.343 45.6751L109.986 37.3511C101.38 28.4143 92.236 21.1616 83.2609 16.9765C74.5544 12.9165 63.4728 10.6898 53.6728 16.6295L59.8926 26.8918ZM54.9081 128.225L43.2975 125.193C40.182 137.122 38.688 148.458 39.601 158.112C40.4921 167.535 43.9915 177.769 53.3537 183.445L59.5748 173.183L65.7958 162.922C65.7376 162.887 65.3614 162.666 64.8702 161.659C64.3372 160.567 63.7652 158.716 63.4944 155.852C62.9449 150.042 63.7842 141.728 66.5187 131.257L54.9081 128.225ZM59.5748 173.183L53.3577 183.447C61.0886 188.13 69.7066 187.598 76.9756 185.191C84.2003 182.799 91.3752 178.204 98.1044 172.518C111.64 161.08 125.544 143.376 137.123 122.251L126.6 116.483L116.077 110.716C105.522 129.974 93.3433 145.12 82.6139 154.186C77.2108 158.752 72.7081 161.323 69.431 162.408C67.8448 162.933 66.8235 163.018 66.2859 162.997C66.0298 162.987 65.8932 162.953 65.845 162.94C65.8019 162.927 65.7934 162.92 65.7918 162.919L59.5748 173.183ZM126.6 116.483L137.17 122.163C140.306 116.327 143.14 110.55 145.654 104.825L134.666 100L123.679 95.1751C121.443 100.267 118.893 105.473 116.029 110.804L126.6 116.483ZM101.333 154.333L92.694 162.662C101.297 171.586 110.425 178.838 119.399 183.024C128.133 187.098 139.181 189.288 148.993 183.397L142.817 173.108L136.64 162.82C136.611 162.838 136.297 163.055 135.234 162.991C134.057 162.92 132.175 162.501 129.544 161.274C124.212 158.787 117.437 153.748 109.973 146.005L101.333 154.333ZM142.817 173.108L148.958 183.418C156.693 178.81 160.505 170.966 162.151 163.356C163.803 155.715 163.623 146.935 162.267 137.896C159.542 119.735 151.679 97.9933 139.67 76.6215L129.208 82.5001L118.747 88.3786C129.687 107.848 136.337 126.819 138.533 141.457C139.637 148.816 139.52 154.457 138.693 158.284C138.289 160.152 137.772 161.322 137.361 161.994C136.98 162.617 136.722 162.771 136.676 162.799L142.817 173.108ZM129.208 82.5001L139.646 76.5796C136.136 70.3908 132.324 65.2275 129.316 60.7784L119.375 67.5001L109.434 74.2218C113.143 79.706 115.881 83.326 118.771 88.4205L129.208 82.5001ZM148.5 125L151.552 136.605C163.245 133.53 173.801 129.191 181.725 123.525C189.419 118.023 196.666 109.694 196.666 98.5333H184.666H172.666C172.666 98.5595 172.687 98.9698 172.071 99.8994C171.402 100.909 170.094 102.337 167.766 104.002C163.048 107.375 155.521 110.745 145.447 113.395L148.5 125ZM184.666 98.5333H196.666C196.666 89.6363 191.973 82.4737 186.334 77.2967C180.704 72.1273 173.219 68.0215 164.982 64.8209C148.431 58.3899 126.38 54.6667 102.625 54.6667V66.6667V78.6667C124.177 78.6667 143.148 82.0851 156.29 87.1916C162.9 89.7598 167.43 92.5217 170.103 94.9757C171.403 96.1693 172.067 97.1101 172.384 97.7115C172.673 98.2599 172.666 98.4998 172.666 98.5333H184.666ZM102.625 66.6667V54.6667C95.9903 54.6667 91.3207 54.9294 85.3263 55.434L86.3329 67.3917L87.3395 79.3494C92.8285 78.8873 96.8089 78.6667 102.625 78.6667V66.6667ZM68 100L79.0168 104.757C81.2207 99.6535 83.7406 94.5727 86.6308 89.2087L76.0667 83.5167L65.5025 77.8247C62.376 83.6273 59.5294 89.3466 56.9833 95.2428L68 100ZM76.0667 83.5167L86.597 89.271C97.1142 70.0246 109.277 54.8714 120.006 45.804C125.409 41.2381 129.914 38.6703 133.194 37.5893C134.782 37.0662 135.807 36.9827 136.351 37.0054C136.611 37.0162 136.753 37.0503 136.808 37.0663C136.859 37.0809 136.876 37.0913 136.887 37.0982L143.117 26.8417L149.346 16.5852C141.609 11.8862 132.981 12.3902 125.683 14.7949C118.438 17.1824 111.249 21.7817 104.515 27.4731C90.9692 38.9204 77.0775 56.6421 65.5363 77.7624L76.0667 83.5167ZM143.117 26.8417L136.855 37.0783C136.902 37.1072 137.283 37.3298 137.781 38.3531C138.318 39.4576 138.892 41.3184 139.167 44.1838C139.725 49.9932 138.903 58.3017 136.173 68.7501L147.783 71.7834L159.394 74.8167C162.514 62.8734 163.984 51.5402 163.058 41.8913C162.155 32.4871 158.662 22.2839 149.379 16.6051L143.117 26.8417ZM103.5 100.125V88.125H103.417V100.125V112.125H103.5V100.125ZM103.417 100.125L91.4519 99.2046C91.8317 94.2681 95.916 90.125 101.25 90.125V102.125V114.125C108.917 114.125 114.835 108.149 115.381 101.045L103.417 100.125ZM101.25 102.125L101.842 90.1396C104.34 90.2631 106.695 91.3355 108.428 93.1378L99.7783 101.455L91.1283 109.772C93.6357 112.38 97.0442 113.932 100.657 114.11L101.25 102.125ZM99.7783 101.455L108.428 93.1378C110.161 94.94 111.14 97.3359 111.166 99.8361L99.1666 99.9583L87.1672 100.081C87.2041 103.698 88.621 107.165 91.1283 109.772L99.7783 101.455ZM99.1666 99.9583H111.167C111.167 105.098 107.027 109.875 101.167 109.875V97.875V85.875C93.1395 85.875 87.1666 92.4851 87.1666 99.9583H99.1666ZM101.167 97.875V85.875H101.083V97.875V109.875H101.167V97.875ZM101.083 97.875L102.004 109.84C98.5231 110.107 95.7916 108.623 94.1629 107.038C92.5478 105.467 91.1666 102.995 91.1666 99.875H103.167H115.167C115.167 95.6712 113.285 92.1583 110.899 89.8368C108.5 87.5021 104.727 85.5593 100.163 85.9103L101.083 97.875Z" fill="#F8F8F6" mask="url(#path-1-outside-1_2053_138)"/>
<mask id="path-3-outside-2_2053_138" maskUnits="userSpaceOnUse" x="0" y="5.99557" width="203" height="188" fill="black">
<rect fill="white" y="5.99557" width="203" height="188"/>
<path d="M178.666 98.5334C178.666 96.3882 177.569 93.6849 174.161 90.5558C170.749 87.423 165.479 84.3251 158.463 81.5988C150.967 78.6861 141.821 76.3318 131.548 74.7726C132.3 75.9522 133.052 77.1715 133.796 78.4435L134.428 79.5402L134.439 79.5607C141.777 92.6179 147.481 105.735 151.36 117.954C159.779 115.393 166.531 112.261 171.256 108.883C176.89 104.854 178.666 101.24 178.666 98.5334ZM59.3916 135.28C57.5826 143.689 56.9935 150.834 57.5215 156.417C58.1726 163.302 60.3647 166.644 62.6826 168.051C64.389 169.085 67.0755 169.508 71.3174 168.104C75.5813 166.692 80.7518 163.615 86.4863 158.769C92.3727 153.795 98.5697 147.194 104.675 139.27C103.232 139.311 101.719 139.333 100.083 139.333C85.4425 139.333 71.5753 137.881 59.3916 135.28ZM136.162 111.002C134.81 113.758 133.384 116.532 131.885 119.323C131.877 119.338 131.869 119.353 131.861 119.367C124.776 132.295 116.848 143.814 108.762 153.283C115.365 159.665 121.606 164.191 127.008 166.711C133.371 169.679 137.379 169.375 139.729 167.964L139.746 167.953C141.66 166.813 143.521 164.348 144.558 159.552C145.591 154.771 145.634 148.346 144.467 140.567C143.152 131.802 140.361 121.715 136.162 111.002ZM102.625 72.6662C97.4741 72.6662 93.6899 72.8359 89.1875 73.1808C86.4949 77.3502 83.8623 81.7633 81.332 86.3937C78.3897 91.8562 75.7939 97.0872 73.5088 102.379C73.3393 102.771 73.131 103.135 72.8936 103.471C74.3828 106.526 75.976 109.605 77.6709 112.694L78.708 114.563L78.709 114.566C81.2181 119.04 83.8082 122.73 86.7178 126.897C91.0517 127.181 95.5165 127.333 100.083 127.333C105.163 127.333 108.93 127.105 113.51 126.736C116.191 122.59 118.815 118.203 121.338 113.6C124.261 108.158 126.874 102.823 129.173 97.5871C129.343 97.2004 129.548 96.8406 129.784 96.5099C128 92.853 126.068 89.1612 123.989 85.4601C121.393 80.8828 118.825 77.2959 115.934 73.0988C111.617 72.8166 107.171 72.6662 102.625 72.6662ZM100.794 91.8839C103.271 91.7476 105.354 92.8125 106.715 94.1369C107.495 94.8957 108.173 95.8667 108.617 96.9933C109.176 97.9051 109.5 98.9772 109.5 100.125C109.5 100.958 109.329 101.75 109.022 102.471C107.974 105.684 104.967 108.125 101.25 108.125C101.151 108.125 101.053 108.122 100.954 108.117C98.8685 108.014 96.9004 107.119 95.4531 105.613C94.006 104.108 93.1883 102.107 93.167 100.02V99.9582C93.1671 95.8451 96.2897 92.2385 100.521 91.9025C100.555 91.8993 100.589 91.8954 100.623 91.8927C100.65 91.8907 100.677 91.8906 100.704 91.8888C100.734 91.8871 100.764 91.8853 100.794 91.8839ZM75.6533 33.2902C69.2712 30.3142 65.2904 30.6364 63.0029 32.0226C62.9873 32.0321 62.9708 32.0416 62.9551 32.0509C61.0257 33.1964 59.1618 35.6649 58.123 40.4562C57.0871 45.2351 57.0452 51.6594 58.2148 59.4386C59.5305 68.1886 62.3172 78.2566 66.5059 88.9494C67.8596 86.2006 69.2859 83.4518 70.7842 80.6711L70.8018 80.6398C77.8702 67.7046 85.7915 56.1706 93.8799 46.6906C87.291 40.3257 81.0508 35.8071 75.6533 33.2902ZM139.99 31.9631C138.255 30.9146 135.553 30.4949 131.316 31.8908C127.045 33.2984 121.869 36.3736 116.133 41.2209C110.247 46.1947 104.056 52.7956 97.9619 60.7179C99.4248 60.6843 100.96 60.6662 102.625 60.6662C117.254 60.6662 131.117 62.1173 143.3 64.717C145.1 56.3237 145.675 49.1881 145.14 43.6105C144.479 36.7236 142.284 33.3691 139.99 31.9631ZM24 101.458C24 103.596 25.0948 106.297 28.5029 109.427C31.9144 112.56 37.1829 115.659 44.2002 118.388C51.6914 121.301 60.8313 123.657 71.1025 125.219C70.1385 123.695 69.1813 122.11 68.2422 120.435V120.434C60.9158 107.384 55.2116 94.2726 51.3291 82.0568C42.8673 84.5948 36.1151 87.7132 31.4004 91.0802C25.7763 95.0968 24.0001 98.7214 24 101.458ZM190.666 98.5334C190.666 106.876 185.243 113.633 178.235 118.644C172.082 123.044 163.931 126.699 154.549 129.527C155.288 132.712 155.887 135.805 156.334 138.786C157.627 147.406 157.732 155.4 156.286 162.088C154.844 168.76 151.682 174.811 145.888 178.263L145.887 178.262C138.565 182.647 129.873 181.288 121.936 177.586C115.028 174.364 107.772 168.986 100.604 162.086C98.4706 164.196 96.3432 166.15 94.2314 167.935C87.834 173.341 81.3275 177.43 75.0898 179.495C68.8299 181.568 62.1886 181.782 56.4658 178.316L56.4639 178.314C49.4497 174.061 46.3854 166.124 45.5742 157.547C44.8864 150.274 45.7054 141.681 47.7598 132.295C44.992 131.452 42.3507 130.544 39.8516 129.572C32.0202 126.527 25.276 122.756 20.3867 118.266C15.4941 113.773 12 108.099 12 101.458C12.0001 93.1116 17.3906 86.3406 24.4268 81.3156C30.5725 76.9265 38.7192 73.2888 48.1357 70.4865C47.3952 67.2997 46.7961 64.2054 46.3477 61.2228C45.0517 52.6032 44.9448 44.6049 46.3955 37.9132C47.8395 31.2528 51.0007 25.217 56.7822 21.7619V21.7609C64.0781 17.339 72.7937 18.7155 80.7256 22.4142C87.623 25.6306 94.8769 30.9972 102.035 37.8849C104.161 35.7827 106.282 33.835 108.388 32.0558C114.789 26.6459 121.306 22.5542 127.561 20.4933C133.645 18.4885 140.08 18.2434 145.691 21.3976L146.231 21.7131L146.248 21.7238C153.202 25.9778 156.263 33.8977 157.085 42.464C157.782 49.7306 156.98 58.3176 154.932 67.7013C157.688 68.5407 160.319 69.4457 162.81 70.4132C170.64 73.4556 177.385 77.2256 182.276 81.716C187.172 86.2103 190.666 91.8869 190.666 98.5334Z"/>
</mask>
<path d="M178.666 98.5334C178.666 96.3882 177.569 93.6849 174.161 90.5558C170.749 87.423 165.479 84.3251 158.463 81.5988C150.967 78.6861 141.821 76.3318 131.548 74.7726C132.3 75.9522 133.052 77.1715 133.796 78.4435L134.428 79.5402L134.439 79.5607C141.777 92.6179 147.481 105.735 151.36 117.954C159.779 115.393 166.531 112.261 171.256 108.883C176.89 104.854 178.666 101.24 178.666 98.5334ZM59.3916 135.28C57.5826 143.689 56.9935 150.834 57.5215 156.417C58.1726 163.302 60.3647 166.644 62.6826 168.051C64.389 169.085 67.0755 169.508 71.3174 168.104C75.5813 166.692 80.7518 163.615 86.4863 158.769C92.3727 153.795 98.5697 147.194 104.675 139.27C103.232 139.311 101.719 139.333 100.083 139.333C85.4425 139.333 71.5753 137.881 59.3916 135.28ZM136.162 111.002C134.81 113.758 133.384 116.532 131.885 119.323C131.877 119.338 131.869 119.353 131.861 119.367C124.776 132.295 116.848 143.814 108.762 153.283C115.365 159.665 121.606 164.191 127.008 166.711C133.371 169.679 137.379 169.375 139.729 167.964L139.746 167.953C141.66 166.813 143.521 164.348 144.558 159.552C145.591 154.771 145.634 148.346 144.467 140.567C143.152 131.802 140.361 121.715 136.162 111.002ZM102.625 72.6662C97.4741 72.6662 93.6899 72.8359 89.1875 73.1808C86.4949 77.3502 83.8623 81.7633 81.332 86.3937C78.3897 91.8562 75.7939 97.0872 73.5088 102.379C73.3393 102.771 73.131 103.135 72.8936 103.471C74.3828 106.526 75.976 109.605 77.6709 112.694L78.708 114.563L78.709 114.566C81.2181 119.04 83.8082 122.73 86.7178 126.897C91.0517 127.181 95.5165 127.333 100.083 127.333C105.163 127.333 108.93 127.105 113.51 126.736C116.191 122.59 118.815 118.203 121.338 113.6C124.261 108.158 126.874 102.823 129.173 97.5871C129.343 97.2004 129.548 96.8406 129.784 96.5099C128 92.853 126.068 89.1612 123.989 85.4601C121.393 80.8828 118.825 77.2959 115.934 73.0988C111.617 72.8166 107.171 72.6662 102.625 72.6662ZM100.794 91.8839C103.271 91.7476 105.354 92.8125 106.715 94.1369C107.495 94.8957 108.173 95.8667 108.617 96.9933C109.176 97.9051 109.5 98.9772 109.5 100.125C109.5 100.958 109.329 101.75 109.022 102.471C107.974 105.684 104.967 108.125 101.25 108.125C101.151 108.125 101.053 108.122 100.954 108.117C98.8685 108.014 96.9004 107.119 95.4531 105.613C94.006 104.108 93.1883 102.107 93.167 100.02V99.9582C93.1671 95.8451 96.2897 92.2385 100.521 91.9025C100.555 91.8993 100.589 91.8954 100.623 91.8927C100.65 91.8907 100.677 91.8906 100.704 91.8888C100.734 91.8871 100.764 91.8853 100.794 91.8839ZM75.6533 33.2902C69.2712 30.3142 65.2904 30.6364 63.0029 32.0226C62.9873 32.0321 62.9708 32.0416 62.9551 32.0509C61.0257 33.1964 59.1618 35.6649 58.123 40.4562C57.0871 45.2351 57.0452 51.6594 58.2148 59.4386C59.5305 68.1886 62.3172 78.2566 66.5059 88.9494C67.8596 86.2006 69.2859 83.4518 70.7842 80.6711L70.8018 80.6398C77.8702 67.7046 85.7915 56.1706 93.8799 46.6906C87.291 40.3257 81.0508 35.8071 75.6533 33.2902ZM139.99 31.9631C138.255 30.9146 135.553 30.4949 131.316 31.8908C127.045 33.2984 121.869 36.3736 116.133 41.2209C110.247 46.1947 104.056 52.7956 97.9619 60.7179C99.4248 60.6843 100.96 60.6662 102.625 60.6662C117.254 60.6662 131.117 62.1173 143.3 64.717C145.1 56.3237 145.675 49.1881 145.14 43.6105C144.479 36.7236 142.284 33.3691 139.99 31.9631ZM24 101.458C24 103.596 25.0948 106.297 28.5029 109.427C31.9144 112.56 37.1829 115.659 44.2002 118.388C51.6914 121.301 60.8313 123.657 71.1025 125.219C70.1385 123.695 69.1813 122.11 68.2422 120.435V120.434C60.9158 107.384 55.2116 94.2726 51.3291 82.0568C42.8673 84.5948 36.1151 87.7132 31.4004 91.0802C25.7763 95.0968 24.0001 98.7214 24 101.458ZM190.666 98.5334C190.666 106.876 185.243 113.633 178.235 118.644C172.082 123.044 163.931 126.699 154.549 129.527C155.288 132.712 155.887 135.805 156.334 138.786C157.627 147.406 157.732 155.4 156.286 162.088C154.844 168.76 151.682 174.811 145.888 178.263L145.887 178.262C138.565 182.647 129.873 181.288 121.936 177.586C115.028 174.364 107.772 168.986 100.604 162.086C98.4706 164.196 96.3432 166.15 94.2314 167.935C87.834 173.341 81.3275 177.43 75.0898 179.495C68.8299 181.568 62.1886 181.782 56.4658 178.316L56.4639 178.314C49.4497 174.061 46.3854 166.124 45.5742 157.547C44.8864 150.274 45.7054 141.681 47.7598 132.295C44.992 131.452 42.3507 130.544 39.8516 129.572C32.0202 126.527 25.276 122.756 20.3867 118.266C15.4941 113.773 12 108.099 12 101.458C12.0001 93.1116 17.3906 86.3406 24.4268 81.3156C30.5725 76.9265 38.7192 73.2888 48.1357 70.4865C47.3952 67.2997 46.7961 64.2054 46.3477 61.2228C45.0517 52.6032 44.9448 44.6049 46.3955 37.9132C47.8395 31.2528 51.0007 25.217 56.7822 21.7619V21.7609C64.0781 17.339 72.7937 18.7155 80.7256 22.4142C87.623 25.6306 94.8769 30.9972 102.035 37.8849C104.161 35.7827 106.282 33.835 108.388 32.0558C114.789 26.6459 121.306 22.5542 127.561 20.4933C133.645 18.4885 140.08 18.2434 145.691 21.3976L146.231 21.7131L146.248 21.7238C153.202 25.9778 156.263 33.8977 157.085 42.464C157.782 49.7306 156.98 58.3176 154.932 67.7013C157.688 68.5407 160.319 69.4457 162.81 70.4132C170.64 73.4556 177.385 77.2256 182.276 81.716C187.172 86.2103 190.666 91.8869 190.666 98.5334Z" fill="#61DBFB"/>
<path d="M178.666 98.5334C178.666 96.3882 177.569 93.6849 174.161 90.5558C170.749 87.423 165.479 84.3251 158.463 81.5988C150.967 78.6861 141.821 76.3318 131.548 74.7726C132.3 75.9522 133.052 77.1715 133.796 78.4435L134.428 79.5402L134.439 79.5607C141.777 92.6179 147.481 105.735 151.36 117.954C159.779 115.393 166.531 112.261 171.256 108.883C176.89 104.854 178.666 101.24 178.666 98.5334ZM59.3916 135.28C57.5826 143.689 56.9935 150.834 57.5215 156.417C58.1726 163.302 60.3647 166.644 62.6826 168.051C64.389 169.085 67.0755 169.508 71.3174 168.104C75.5813 166.692 80.7518 163.615 86.4863 158.769C92.3727 153.795 98.5697 147.194 104.675 139.27C103.232 139.311 101.719 139.333 100.083 139.333C85.4425 139.333 71.5753 137.881 59.3916 135.28ZM136.162 111.002C134.81 113.758 133.384 116.532 131.885 119.323C131.877 119.338 131.869 119.353 131.861 119.367C124.776 132.295 116.848 143.814 108.762 153.283C115.365 159.665 121.606 164.191 127.008 166.711C133.371 169.679 137.379 169.375 139.729 167.964L139.746 167.953C141.66 166.813 143.521 164.348 144.558 159.552C145.591 154.771 145.634 148.346 144.467 140.567C143.152 131.802 140.361 121.715 136.162 111.002ZM102.625 72.6662C97.4741 72.6662 93.6899 72.8359 89.1875 73.1808C86.4949 77.3502 83.8623 81.7633 81.332 86.3937C78.3897 91.8562 75.7939 97.0872 73.5088 102.379C73.3393 102.771 73.131 103.135 72.8936 103.471C74.3828 106.526 75.976 109.605 77.6709 112.694L78.708 114.563L78.709 114.566C81.2181 119.04 83.8082 122.73 86.7178 126.897C91.0517 127.181 95.5165 127.333 100.083 127.333C105.163 127.333 108.93 127.105 113.51 126.736C116.191 122.59 118.815 118.203 121.338 113.6C124.261 108.158 126.874 102.823 129.173 97.5871C129.343 97.2004 129.548 96.8406 129.784 96.5099C128 92.853 126.068 89.1612 123.989 85.4601C121.393 80.8828 118.825 77.2959 115.934 73.0988C111.617 72.8166 107.171 72.6662 102.625 72.6662ZM100.794 91.8839C103.271 91.7476 105.354 92.8125 106.715 94.1369C107.495 94.8957 108.173 95.8667 108.617 96.9933C109.176 97.9051 109.5 98.9772 109.5 100.125C109.5 100.958 109.329 101.75 109.022 102.471C107.974 105.684 104.967 108.125 101.25 108.125C101.151 108.125 101.053 108.122 100.954 108.117C98.8685 108.014 96.9004 107.119 95.4531 105.613C94.006 104.108 93.1883 102.107 93.167 100.02V99.9582C93.1671 95.8451 96.2897 92.2385 100.521 91.9025C100.555 91.8993 100.589 91.8954 100.623 91.8927C100.65 91.8907 100.677 91.8906 100.704 91.8888C100.734 91.8871 100.764 91.8853 100.794 91.8839ZM75.6533 33.2902C69.2712 30.3142 65.2904 30.6364 63.0029 32.0226C62.9873 32.0321 62.9708 32.0416 62.9551 32.0509C61.0257 33.1964 59.1618 35.6649 58.123 40.4562C57.0871 45.2351 57.0452 51.6594 58.2148 59.4386C59.5305 68.1886 62.3172 78.2566 66.5059 88.9494C67.8596 86.2006 69.2859 83.4518 70.7842 80.6711L70.8018 80.6398C77.8702 67.7046 85.7915 56.1706 93.8799 46.6906C87.291 40.3257 81.0508 35.8071 75.6533 33.2902ZM139.99 31.9631C138.255 30.9146 135.553 30.4949 131.316 31.8908C127.045 33.2984 121.869 36.3736 116.133 41.2209C110.247 46.1947 104.056 52.7956 97.9619 60.7179C99.4248 60.6843 100.96 60.6662 102.625 60.6662C117.254 60.6662 131.117 62.1173 143.3 64.717C145.1 56.3237 145.675 49.1881 145.14 43.6105C144.479 36.7236 142.284 33.3691 139.99 31.9631ZM24 101.458C24 103.596 25.0948 106.297 28.5029 109.427C31.9144 112.56 37.1829 115.659 44.2002 118.388C51.6914 121.301 60.8313 123.657 71.1025 125.219C70.1385 123.695 69.1813 122.11 68.2422 120.435V120.434C60.9158 107.384 55.2116 94.2726 51.3291 82.0568C42.8673 84.5948 36.1151 87.7132 31.4004 91.0802C25.7763 95.0968 24.0001 98.7214 24 101.458ZM190.666 98.5334C190.666 106.876 185.243 113.633 178.235 118.644C172.082 123.044 163.931 126.699 154.549 129.527C155.288 132.712 155.887 135.805 156.334 138.786C157.627 147.406 157.732 155.4 156.286 162.088C154.844 168.76 151.682 174.811 145.888 178.263L145.887 178.262C138.565 182.647 129.873 181.288 121.936 177.586C115.028 174.364 107.772 168.986 100.604 162.086C98.4706 164.196 96.3432 166.15 94.2314 167.935C87.834 173.341 81.3275 177.43 75.0898 179.495C68.8299 181.568 62.1886 181.782 56.4658 178.316L56.4639 178.314C49.4497 174.061 46.3854 166.124 45.5742 157.547C44.8864 150.274 45.7054 141.681 47.7598 132.295C44.992 131.452 42.3507 130.544 39.8516 129.572C32.0202 126.527 25.276 122.756 20.3867 118.266C15.4941 113.773 12 108.099 12 101.458C12.0001 93.1116 17.3906 86.3406 24.4268 81.3156C30.5725 76.9265 38.7192 73.2888 48.1357 70.4865C47.3952 67.2997 46.7961 64.2054 46.3477 61.2228C45.0517 52.6032 44.9448 44.6049 46.3955 37.9132C47.8395 31.2528 51.0007 25.217 56.7822 21.7619V21.7609C64.0781 17.339 72.7937 18.7155 80.7256 22.4142C87.623 25.6306 94.8769 30.9972 102.035 37.8849C104.161 35.7827 106.282 33.835 108.388 32.0558C114.789 26.6459 121.306 22.5542 127.561 20.4933C133.645 18.4885 140.08 18.2434 145.691 21.3976L146.231 21.7131L146.248 21.7238C153.202 25.9778 156.263 33.8977 157.085 42.464C157.782 49.7306 156.98 58.3176 154.932 67.7013C157.688 68.5407 160.319 69.4457 162.81 70.4132C170.64 73.4556 177.385 77.2256 182.276 81.716C187.172 86.2103 190.666 91.8869 190.666 98.5334Z" stroke="#F8F8F6" stroke-width="24" stroke-linecap="round" stroke-linejoin="round" mask="url(#path-3-outside-2_2053_138)"/>
</svg>
