<svg width="200" height="200" viewBox="0 0 200 200" fill="none" xmlns="http://www.w3.org/2000/svg">
<mask id="path-1-outside-1_2053_327" maskUnits="userSpaceOnUse" x="12" y="13" width="176" height="166" fill="black">
<rect fill="white" x="12" y="13" width="176" height="166"/>
<path d="M137.834 58.3333C131.125 38.625 116.7 25 100 25C76.8838 25 58.1421 46.9333 58.1421 79.1333C58.1421 95.4333 71.3254 118.525 79.0754 129.133"/>
<path d="M39.2576 99.825C25.4576 115.467 20.8076 134.7 29.166 149.083C40.7243 169 71.9826 172.675 100.008 156.583C114.199 148.425 123.966 128.567 129.308 116.6"/>
<path d="M125.118 166.584C146.043 166.584 162.809 162.934 170.843 149.084C182.401 129.167 169.051 99.9752 141.018 83.8835C126.834 75.7252 104.709 73.5919 91.626 74.9669"/>
<path d="M87.4436 82.1836C91.4436 84.4836 96.5686 83.1169 98.8769 79.1336C99.9786 77.2193 100.275 74.946 99.7018 72.8131C99.1284 70.6802 97.7317 68.8622 95.8186 67.7585C93.8957 66.6508 91.6123 66.3498 89.468 66.9214C87.3238 67.493 85.4932 68.8906 84.3769 70.8086C83.2759 72.7238 82.9805 74.9979 83.5555 77.1309C84.1306 79.2639 85.5291 81.0813 87.4436 82.1836Z"/>
<path d="M70.8333 129.167C70.8333 131.377 71.7113 133.496 73.2741 135.059C74.8369 136.622 76.9565 137.5 79.1667 137.5C81.3768 137.5 83.4964 136.622 85.0592 135.059C86.622 133.496 87.5 131.377 87.5 129.167C87.5 126.957 86.622 124.837 85.0592 123.274C83.4964 121.711 81.3768 120.833 79.1667 120.833C76.9565 120.833 74.8369 121.711 73.2741 123.274C71.7113 124.837 70.8333 126.957 70.8333 129.167Z"/>
<path d="M120.833 116.667C120.833 118.877 121.711 120.996 123.274 122.559C124.837 124.122 126.957 125 129.167 125C131.377 125 133.496 124.122 135.059 122.559C136.622 120.996 137.5 118.877 137.5 116.667C137.5 114.457 136.622 112.337 135.059 110.774C133.496 109.211 131.377 108.333 129.167 108.333C126.957 108.333 124.837 109.211 123.274 110.774C121.711 112.337 120.833 114.457 120.833 116.667Z"/>
</mask>
<path d="M137.834 58.3333C131.125 38.625 116.7 25 100 25C76.8838 25 58.1421 46.9333 58.1421 79.1333C58.1421 95.4333 71.3254 118.525 79.0754 129.133" fill="#F8F8F6"/>
<path d="M39.2576 99.825C25.4576 115.467 20.8076 134.7 29.166 149.083C40.7243 169 71.9826 172.675 100.008 156.583C114.199 148.425 123.966 128.567 129.308 116.6" fill="#F8F8F6"/>
<path d="M125.118 166.584C146.043 166.584 162.809 162.934 170.843 149.084C182.401 129.167 169.051 99.9752 141.018 83.8835C126.834 75.7252 104.709 73.5919 91.626 74.9669" fill="#F8F8F6"/>
<path d="M87.4436 82.1836C91.4436 84.4836 96.5686 83.1169 98.8769 79.1336C99.9786 77.2193 100.275 74.946 99.7018 72.8131C99.1284 70.6802 97.7317 68.8622 95.8186 67.7585C93.8957 66.6508 91.6123 66.3498 89.468 66.9214C87.3238 67.493 85.4932 68.8906 84.3769 70.8086C83.2759 72.7238 82.9805 74.9979 83.5555 77.1309C84.1306 79.2639 85.5291 81.0813 87.4436 82.1836Z" fill="#F8F8F6"/>
<path d="M70.8333 129.167C70.8333 131.377 71.7113 133.496 73.2741 135.059C74.8369 136.622 76.9565 137.5 79.1667 137.5C81.3768 137.5 83.4964 136.622 85.0592 135.059C86.622 133.496 87.5 131.377 87.5 129.167C87.5 126.957 86.622 124.837 85.0592 123.274C83.4964 121.711 81.3768 120.833 79.1667 120.833C76.9565 120.833 74.8369 121.711 73.2741 123.274C71.7113 124.837 70.8333 126.957 70.8333 129.167Z" fill="#F8F8F6"/>
<path d="M120.833 116.667C120.833 118.877 121.711 120.996 123.274 122.559C124.837 124.122 126.957 125 129.167 125C131.377 125 133.496 124.122 135.059 122.559C136.622 120.996 137.5 118.877 137.5 116.667C137.5 114.457 136.622 112.337 135.059 110.774C133.496 109.211 131.377 108.333 129.167 108.333C126.957 108.333 124.837 109.211 123.274 110.774C121.711 112.337 120.833 114.457 120.833 116.667Z" fill="#F8F8F6"/>
<path d="M126.474 62.2C128.609 68.474 135.427 71.8288 141.7 69.6933C147.974 67.5578 151.329 60.7406 149.194 54.4666L137.834 58.3333L126.474 62.2ZM69.3857 136.212C73.2953 141.564 80.8028 142.733 86.1543 138.823C91.5057 134.913 92.6746 127.406 88.7651 122.054L79.0754 129.133L69.3857 136.212ZM48.2561 107.764C52.6407 102.794 52.1663 95.2111 47.1966 90.8266C42.2269 86.442 34.6437 86.9163 30.2592 91.886L39.2576 99.825L48.2561 107.764ZM29.166 149.083L39.5448 143.06L39.5413 143.054L29.166 149.083ZM100.008 156.583L105.983 166.99L105.988 166.987L100.008 156.583ZM140.265 121.491C142.967 115.44 140.251 108.344 134.199 105.642C128.147 102.941 121.051 105.657 118.35 111.709L129.308 116.6L140.265 121.491ZM125.118 154.584C118.49 154.584 113.118 159.956 113.118 166.584C113.118 173.211 118.49 178.584 125.118 178.584V166.584V154.584ZM170.843 149.084L160.464 143.06L160.462 143.063L170.843 149.084ZM141.018 83.8835L135.034 94.2855L135.044 94.2908L141.018 83.8835ZM90.3717 63.0326C83.7806 63.7253 78.999 69.63 79.6917 76.2211C80.3844 82.8122 86.2891 87.5938 92.8802 86.9011L91.626 74.9669L90.3717 63.0326ZM87.4436 82.1836L81.456 92.5831L81.4619 92.5864L87.4436 82.1836ZM98.8769 79.1336L109.26 85.1503C109.266 85.1399 109.271 85.1296 109.277 85.1193L98.8769 79.1336ZM95.8186 67.7585L101.815 57.3643L101.809 57.3606L95.8186 67.7585ZM84.3769 70.8086L74.0057 64.7721C73.9949 64.7907 73.9841 64.8094 73.9734 64.828L84.3769 70.8086ZM137.834 58.3333L149.194 54.4666C141.585 32.1117 123.843 13 100 13V25V37C109.558 37 120.666 45.1383 126.474 62.2L137.834 58.3333ZM100 25V13C67.8553 13 46.1421 42.994 46.1421 79.1333H58.1421H70.1421C70.1421 50.8727 85.9122 37 100 37V25ZM58.1421 79.1333H46.1421C46.1421 89.9707 50.3581 101.765 54.8287 111.343C59.4398 121.222 65.0774 130.315 69.3857 136.212L79.0754 129.133L88.7651 122.054C85.3234 117.343 80.4943 109.586 76.5763 101.192C72.5177 92.4971 70.1421 84.596 70.1421 79.1333H58.1421ZM39.2576 99.825L30.2592 91.886C14.6392 109.591 6.80043 134.479 18.7906 155.113L29.166 149.083L39.5413 143.054C34.8148 134.921 36.2761 121.343 48.2561 107.764L39.2576 99.825ZM29.166 149.083L18.7871 155.107C26.9223 169.125 41.5223 176.56 57.1062 178.265C72.6879 179.971 90.0354 176.147 105.983 166.99L100.008 156.583L94.0323 146.177C81.9549 153.112 69.6607 155.496 59.7174 154.408C49.7763 153.32 42.9679 148.959 39.5448 143.06L29.166 149.083ZM100.008 156.583L105.988 166.987C115.481 161.53 122.723 152.7 128.025 144.58C133.434 136.294 137.517 127.648 140.265 121.491L129.308 116.6L118.35 111.709C115.756 117.519 112.285 124.785 107.928 131.46C103.463 138.3 98.7262 143.479 94.027 146.18L100.008 156.583ZM125.118 166.584V178.584C146.105 178.584 169.545 175.238 181.223 155.104L170.843 149.084L160.462 143.063C156.074 150.629 145.98 154.584 125.118 154.584V166.584ZM170.843 149.084L181.221 155.107C189.462 140.908 188.235 124.367 181.69 110.058C175.134 95.7264 162.921 82.6201 146.992 73.4762L141.018 83.8835L135.044 94.2908C147.147 101.239 155.626 110.774 159.864 120.041C164.113 129.329 163.782 137.343 160.464 143.06L170.843 149.084ZM141.018 83.8835L147.001 73.4816C138.159 68.3959 127.493 65.4975 117.742 63.9909C107.914 62.4725 98.0675 62.2238 90.3717 63.0326L91.626 74.9669L92.8802 86.9011C98.2678 86.3349 106.025 86.4654 114.077 87.7095C122.205 88.9654 129.693 91.2129 135.034 94.2855L141.018 83.8835ZM87.4436 82.1836L81.4619 92.5864C91.1698 98.1685 103.622 94.8778 109.26 85.1503L98.8769 79.1336L88.4943 73.1168C89.5147 71.356 91.7173 70.7986 93.4252 71.7807L87.4436 82.1836ZM98.8769 79.1336L109.277 85.1193C111.966 80.4485 112.69 74.9016 111.29 69.6974L99.7018 72.8131L88.1134 75.9288C87.8611 74.9904 87.9916 73.9901 88.4764 73.1479L98.8769 79.1336ZM99.7018 72.8131L111.29 69.6974C109.891 64.4932 106.483 60.0572 101.815 57.3643L95.8186 67.7585L89.822 78.1528C88.9802 77.6672 88.3657 76.8673 88.1134 75.9288L99.7018 72.8131ZM95.8186 67.7585L101.809 57.3606C97.1363 54.6687 91.5877 53.9373 86.3771 55.3263L89.468 66.9214L92.559 78.5165C91.637 78.7622 90.6551 78.6328 89.8283 78.1565L95.8186 67.7585ZM89.468 66.9214L86.3771 55.3263C81.1666 56.7152 76.7184 60.1115 74.0057 64.7721L84.3769 70.8086L94.7481 76.845C94.2681 77.6697 93.4809 78.2707 92.559 78.5165L89.468 66.9214ZM84.3769 70.8086L73.9734 64.828C71.2869 69.5013 70.5661 75.05 71.9692 80.2545L83.5555 77.1309L95.1418 74.0072C95.3949 74.9458 95.2649 75.9463 94.7804 76.7891L84.3769 70.8086ZM83.5555 77.1309L71.9692 80.2545C73.3723 85.459 76.7846 89.8935 81.456 92.5831L87.4436 82.1836L93.4311 71.7841C94.2735 72.2691 94.8888 73.0687 95.1418 74.0072L83.5555 77.1309ZM70.8333 129.167H58.8333C58.8333 134.559 60.9756 139.731 64.7888 143.545L73.2741 135.059L81.7594 126.574C82.447 127.262 82.8333 128.194 82.8333 129.167H70.8333ZM73.2741 135.059L64.7888 143.545C68.6021 147.358 73.774 149.5 79.1667 149.5V137.5V125.5C80.1391 125.5 81.0717 125.886 81.7594 126.574L73.2741 135.059ZM79.1667 137.5V149.5C84.5594 149.5 89.7312 147.358 93.5445 143.545L85.0592 135.059L76.5739 126.574C77.2616 125.886 78.1942 125.5 79.1667 125.5V137.5ZM85.0592 135.059L93.5445 143.545C97.3577 139.731 99.5 134.559 99.5 129.167H87.5H75.5C75.5 128.194 75.8863 127.262 76.5739 126.574L85.0592 135.059ZM87.5 129.167H99.5C99.5 123.774 97.3577 118.602 93.5445 114.789L85.0592 123.274L76.5739 131.759C75.8863 131.072 75.5 130.139 75.5 129.167H87.5ZM85.0592 123.274L93.5445 114.789C89.7313 110.976 84.5594 108.833 79.1667 108.833V120.833V132.833C78.1942 132.833 77.2616 132.447 76.5739 131.759L85.0592 123.274ZM79.1667 120.833V108.833C73.7739 108.833 68.6021 110.976 64.7888 114.789L73.2741 123.274L81.7594 131.759C81.0718 132.447 80.1391 132.833 79.1667 132.833V120.833ZM73.2741 123.274L64.7888 114.789C60.9756 118.602 58.8333 123.774 58.8333 129.167H70.8333H82.8333C82.8333 130.139 82.447 131.072 81.7594 131.759L73.2741 123.274ZM120.833 116.667H108.833C108.833 122.059 110.976 127.231 114.789 131.045L123.274 122.559L131.759 114.074C132.447 114.762 132.833 115.694 132.833 116.667H120.833ZM123.274 122.559L114.789 131.045C118.602 134.858 123.774 137 129.167 137V125V113C130.139 113 131.072 113.386 131.759 114.074L123.274 122.559ZM129.167 125V137C134.559 137 139.731 134.858 143.545 131.045L135.059 122.559L126.574 114.074C127.262 113.386 128.194 113 129.167 113V125ZM135.059 122.559L143.545 131.045C147.358 127.231 149.5 122.059 149.5 116.667H137.5H125.5C125.5 115.694 125.886 114.762 126.574 114.074L135.059 122.559ZM137.5 116.667H149.5C149.5 111.274 147.358 106.102 143.545 102.289L135.059 110.774L126.574 119.259C125.886 118.572 125.5 117.639 125.5 116.667H137.5ZM135.059 110.774L143.545 102.289C139.731 98.4756 134.559 96.3333 129.167 96.3333V108.333V120.333C128.194 120.333 127.262 119.947 126.574 119.259L135.059 110.774ZM129.167 108.333V96.3333C123.774 96.3333 118.602 98.4756 114.789 102.289L123.274 110.774L131.759 119.259C131.072 119.947 130.139 120.333 129.167 120.333V108.333ZM123.274 110.774L114.789 102.289C110.976 106.102 108.833 111.274 108.833 116.667H120.833H132.833C132.833 117.639 132.447 118.572 131.759 119.259L123.274 110.774Z" fill="#F8F8F6" mask="url(#path-1-outside-1_2053_327)"/>
<path d="M115 106C115 114.284 108.284 121 100 121C91.7157 121 85 114.284 85 106C85 97.7157 91.7157 91 100 91C108.284 91 115 97.7157 115 106Z" fill="#F8F8F6"/>
<path d="M34.759 95.8555C36.9513 93.3708 40.743 93.1339 43.2277 95.3262C45.7122 97.5185 45.9492 101.31 43.757 103.795C30.8673 118.405 27.8116 134.81 34.3537 146.068L34.3557 146.071C38.9568 154 47.7129 159.13 59.0647 160.372C70.4175 161.615 83.9748 158.87 97.0197 151.38C102.916 147.989 108.279 141.899 112.952 134.74C114.861 131.817 116.596 128.801 118.165 125.854C116.022 123.287 114.833 120.038 114.833 116.667C114.833 112.866 116.343 109.219 119.031 106.531C121.719 103.843 125.366 102.333 129.167 102.333C132.968 102.333 136.614 103.843 139.302 106.531C141.99 109.219 143.5 112.866 143.5 116.667C143.5 120.468 141.99 124.114 139.302 126.802C136.614 129.49 132.968 131 129.167 131C129.119 131 129.071 130.998 129.023 130.997C127.245 134.365 125.239 137.872 123.001 141.3C117.909 149.1 111.292 157.017 102.998 161.785L102.995 161.787C88.0154 170.388 71.931 173.852 57.759 172.301C43.5859 170.749 30.9339 164.083 23.9768 152.095L23.9777 152.094C13.8063 134.586 20.05 112.527 34.759 95.8555ZM87.923 61.124C91.6003 60.1438 95.516 60.6599 98.8137 62.5596L98.8166 62.5615C101.31 63.9999 103.293 66.1441 104.536 68.6943C108.495 68.8756 112.655 69.2765 116.825 69.9209C126.169 71.3646 136.039 74.0988 144.005 78.6797L145.398 79.4961C159.678 88.0389 170.444 99.8969 176.234 112.554C182.204 125.607 183.041 140.014 176.032 152.093L176.033 152.094C166.178 169.085 146.074 172.584 125.117 172.584C121.804 172.584 119.118 169.897 119.117 166.584C119.117 163.27 121.804 160.584 125.117 160.584C146.011 160.584 159.441 156.781 165.653 146.073L165.654 146.072C170.202 138.234 170.143 128.089 165.321 117.545C160.503 107.012 151.091 96.5837 138.03 89.0869L138.027 89.085C131.81 85.5091 123.527 83.0988 114.993 81.7803C111.505 81.2413 108.053 80.8993 104.783 80.7236C104.574 81.2012 104.34 81.6698 104.077 82.126C104.074 82.1311 104.071 82.1365 104.069 82.1416C100.096 88.997 91.3072 91.3256 84.4533 87.3848L84.4504 87.3838C81.1574 85.4879 78.752 82.3612 77.7629 78.6924C76.7739 75.0237 77.2814 71.1125 79.175 67.8184L79.1916 67.79C81.1061 64.5009 84.2457 62.1043 87.923 61.124ZM52.1418 79.1338C52.1418 44.9643 72.3695 19.0003 100 19C120.271 19 136.355 35.3688 143.514 56.4004C144.581 59.5372 142.904 62.9458 139.768 64.0137C136.631 65.0814 133.221 63.4036 132.154 60.2666C125.896 41.8817 113.129 31 100 31C81.3979 31.0003 64.1428 48.9037 64.1428 79.1338C64.1429 85.94 66.9784 94.814 71.1398 103.729C72.9908 107.695 75.0353 111.522 77.0568 114.988C77.7512 114.885 78.4567 114.833 79.1672 114.833C82.9684 114.833 86.614 116.343 89.302 119.031C91.99 121.719 93.5002 125.366 93.5002 129.167C93.5001 132.968 91.9899 136.614 89.302 139.302C86.614 141.99 82.9685 143.5 79.1672 143.5C75.3658 143.5 71.7195 141.99 69.0314 139.302C66.3436 136.614 64.8333 132.968 64.8332 129.167C64.8332 126.461 65.5986 123.834 67.009 121.575C64.7042 117.658 62.3716 113.317 60.2658 108.806C55.8983 99.4487 52.1419 88.6274 52.1418 79.1338Z" fill="#7F42C3"/>
<path d="M101.114 13.0137C124.411 13.5983 141.711 32.4823 149.194 54.4668V54.4678C151.328 60.7403 147.976 67.5573 141.702 69.6934H141.701C141.191 69.8667 140.678 70.0031 140.165 70.1055C142.226 70.9783 144.234 71.9425 146.162 73.0078L146.997 73.4785L147.04 73.5039L148.432 74.3203L148.478 74.3467C163.676 83.4388 175.339 96.1719 181.69 110.058C188.22 124.335 189.459 140.842 181.265 155.028C181.251 155.053 181.238 155.08 181.223 155.104C169.544 175.24 146.098 178.584 125.118 178.584H125.117C118.49 178.583 113.118 173.211 113.118 166.584C113.118 164.384 113.712 162.324 114.745 160.552C112.068 162.97 109.154 165.168 105.989 166.987L105.988 166.986C105.986 166.987 105.985 166.989 105.983 166.99C90.0358 176.147 72.6879 179.971 57.106 178.266C41.528 176.56 26.9251 169.128 18.7876 155.106C18.7556 155.051 18.7249 154.995 18.6948 154.939C6.83875 134.325 14.698 109.524 30.2593 91.8857H30.2603C34.6452 86.9163 42.2276 86.4432 47.1968 90.8271H47.1978C47.3487 90.9603 47.4946 91.0974 47.6372 91.2363C46.7053 87.1774 46.1421 83.0918 46.1421 79.1338C46.1421 43.0397 67.8199 13.0003 100 13L101.114 13.0137ZM109.116 87.0771C113.974 89.422 117.791 93.5827 119.687 98.6787C122.584 97.1523 125.833 96.333 129.167 96.333C134.56 96.3332 139.732 98.4755 143.544 102.288V102.289C147.358 106.102 149.5 111.274 149.5 116.667C149.5 122.06 147.357 127.231 143.544 131.044C140.591 133.997 136.823 135.947 132.769 136.677C131.325 139.279 129.745 141.945 128.025 144.58C125.508 148.435 122.553 152.449 119.128 156.187C120.891 155.169 122.935 154.584 125.117 154.584H125.118L127.041 154.572C146.595 154.333 156.208 150.397 160.462 143.062C160.465 143.058 160.468 143.053 160.47 143.049C163.786 137.326 164.105 129.315 159.864 120.041C155.625 110.774 147.147 101.238 135.043 94.291V94.29C135.041 94.2885 135.037 94.2877 135.035 94.2861C129.693 91.2137 122.206 88.9659 114.078 87.71C112.411 87.4524 110.75 87.2431 109.116 87.0771ZM51.0044 102.271C50.5953 104.245 49.6859 106.144 48.2563 107.765C36.3 121.317 34.8042 134.895 39.5386 143.049C39.5407 143.052 39.5433 143.056 39.5454 143.06C42.9719 148.964 49.7846 153.32 59.7173 154.407C69.6608 155.496 81.9548 153.111 94.0317 146.177C98.729 143.475 103.464 138.298 107.928 131.46C109.066 129.717 110.145 127.926 111.168 126.126C110.855 125.529 110.572 124.917 110.319 124.292C107.271 126.015 103.751 127 100 127C99.7936 127 99.5868 126.996 99.3813 126.99C99.4588 127.71 99.5005 128.436 99.5005 129.167C99.5004 134.56 97.3574 139.731 93.5444 143.544C89.8506 147.238 84.882 149.365 79.6724 149.494L79.1675 149.5C73.7749 149.5 68.6019 147.357 64.7886 143.544C60.9759 139.731 58.8336 134.56 58.8335 129.167C58.8335 126.622 59.3126 124.127 60.2173 121.8C58.3672 118.512 56.5292 114.987 54.8286 111.344C53.4958 108.488 52.1869 105.435 51.0044 102.271ZM99.3364 37.0098C85.378 37.4387 70.1431 51.3722 70.1431 79.1338L70.1499 79.6523C70.293 85.0891 72.6442 92.7663 76.5767 101.191C77.3526 102.854 78.1681 104.494 79.0015 106.094C79.0013 106.063 79.0005 106.031 79.0005 106C79.0005 101.298 80.5453 96.957 83.1558 93.457C82.6076 93.2061 82.0661 92.9289 81.5327 92.625C81.5075 92.611 81.4815 92.5984 81.4565 92.584C76.7847 89.8941 73.3732 85.458 71.9702 80.2539H71.9692C70.5665 75.0503 71.2866 69.5017 73.9731 64.8281C73.9816 64.8135 73.99 64.7988 73.9985 64.7842L74.0151 64.7559C76.7289 60.1032 81.1734 56.7134 86.3774 55.3262C91.4247 53.9808 96.7893 54.6255 101.368 57.1143L101.809 57.3604L101.815 57.3643L102.469 57.7588C104.635 59.1193 106.506 60.8652 108.002 62.8896C111.186 63.1206 114.459 63.4841 117.742 63.9912C121.363 64.5507 125.111 65.3021 128.844 66.2861C127.82 65.1292 127.002 63.7546 126.473 62.2002C120.675 45.1672 109.58 37.0002 100 37L99.3364 37.0098Z" stroke="#F8F8F6" stroke-width="12" stroke-linecap="round" stroke-linejoin="round"/>
</svg>
