<svg width="200" height="200" viewBox="0 0 200 200" fill="none" xmlns="http://www.w3.org/2000/svg">
<path d="M50 54.6667L50.082 54.6676L50.4375 54.6725C50.4595 54.6728 50.4819 54.673 50.5039 54.6735C55.5512 54.7986 60.3723 56.7974 64.0273 60.2809L64.377 60.6217V60.6227C68.19 64.4357 70.3329 69.6069 70.333 74.9997C70.333 81.6271 64.9604 86.9997 58.333 86.9997C52.9852 86.9994 48.4551 83.5003 46.9053 78.6667H37V87.9997H50C55.3929 87.9997 60.5642 90.1424 64.377 93.9548V93.9557C68.1903 97.7691 70.333 102.941 70.333 108.334V125C70.333 130.392 68.1903 135.564 64.377 139.378V139.379C60.5642 143.191 55.3929 145.334 50 145.334H33.333C27.9405 145.334 22.7689 143.191 18.9561 139.379V139.378C15.1427 135.564 13 130.392 13 125L13.0039 124.69C13.1683 118.206 18.4758 113 25 113C30.3487 113 34.8771 116.5 36.4268 121.334H46.333V112H33.333C27.9403 112 22.7691 109.857 18.9561 106.044H18.9551C15.1425 102.231 13 97.0595 13 91.6667V74.9997L13.0059 74.4948C13.1352 69.285 15.2622 64.3166 18.9561 60.6227C22.7691 56.8097 27.9403 54.6668 33.333 54.6667H50ZM100 54.6667C107.603 54.6667 114.894 57.6867 120.27 63.0622V63.0631C125.645 68.4389 128.667 75.7304 128.667 83.3337V116.667C128.667 120.192 128.013 123.648 126.781 126.879C129.751 131.522 129.209 137.76 125.151 141.818C121.094 145.876 114.855 146.417 110.212 143.448C106.982 144.68 103.525 145.334 100 145.334C92.3965 145.334 85.1061 142.312 79.7305 136.936C74.3549 131.561 71.333 124.27 71.333 116.667V83.3337C71.333 75.7304 74.3547 68.4389 79.7305 63.0631V63.0622C85.1064 57.6867 92.3974 54.6667 100 54.6667ZM141.977 54.6706C148.46 54.8349 153.667 60.1424 153.667 66.6667V121.334H175C181.627 121.334 187 126.706 187 133.334L186.996 133.643C186.832 140.127 181.524 145.334 175 145.334H141.667C135.039 145.334 129.667 139.96 129.667 133.334V66.6667C129.667 60.0393 135.04 54.6667 141.667 54.6667L141.977 54.6706ZM100 78.6667C98.7627 78.6667 97.5756 79.1585 96.7002 80.0339L96.6992 80.0329C95.8237 80.9086 95.333 82.0971 95.333 83.3337V116.667C95.333 117.903 95.824 119.09 96.7002 119.966C96.8679 120.134 97.0477 120.287 97.2363 120.425C97.8214 119.004 98.6922 117.672 99.8486 116.515C101.248 115.116 102.906 114.136 104.667 113.573V83.3337C104.667 82.0971 104.175 80.9096 103.3 80.0339C102.424 79.1586 101.237 78.6667 100 78.6667Z" fill="#F29111" stroke="#F8F8F6" stroke-width="12" stroke-linecap="round" stroke-linejoin="round"/>
</svg>
