<svg width="200" height="200" viewBox="0 0 200 200" fill="none" xmlns="http://www.w3.org/2000/svg">
<mask id="path-1-outside-1_2053_349" maskUnits="userSpaceOnUse" x="21.3394" y="21.3379" width="149" height="166" fill="black">
<rect fill="white" x="21.3394" y="21.3379" width="149" height="166"/>
<path d="M125 66.6667L83.3337 91.6667L90.1753 87.5417C105.675 77.9583 126.942 83.4583 136.625 98.8083C138.927 102.457 140.482 106.528 141.198 110.782C141.915 115.037 141.779 119.391 140.799 123.593C139.819 127.795 138.015 131.761 135.49 135.259C132.965 138.758 129.771 141.721 126.092 143.975L83.9837 170.025C68.4837 179.617 48.0503 174.95 38.367 159.6C36.0646 155.951 34.5097 151.882 33.7926 147.627C33.0755 143.373 33.2104 139.019 34.1895 134.817C35.1687 130.615 36.9725 126.65 39.4964 123.151C42.0202 119.651 45.2139 116.688 48.892 114.433L51.0587 113.1"/>
<path d="M66.6667 141.667L108.333 116.667L101.483 120.8C85.9834 130.392 64.7251 124.892 55.0334 109.542C52.7313 105.892 51.177 101.822 50.4605 97.5677C49.744 93.3131 49.8796 88.9585 50.8595 84.7566C51.8394 80.5548 53.6441 76.5894 56.1688 73.0906C58.6935 69.5918 61.8879 66.6293 65.5667 64.3749L107.683 38.3166C123.183 28.7333 143.608 33.3999 153.3 48.7499C155.602 52.3991 157.156 56.4691 157.873 60.7238C158.589 64.9784 158.454 69.333 157.474 73.5349C156.494 77.7367 154.689 81.7021 152.165 85.2009C149.64 88.6997 146.446 91.6622 142.767 93.9166L140.6 95.2499"/>
</mask>
<path d="M125 66.6667L83.3337 91.6667L90.1753 87.5417C105.675 77.9583 126.942 83.4583 136.625 98.8083C138.927 102.457 140.482 106.528 141.198 110.782C141.915 115.037 141.779 119.391 140.799 123.593C139.819 127.795 138.015 131.761 135.49 135.259C132.965 138.758 129.771 141.721 126.092 143.975L83.9837 170.025C68.4837 179.617 48.0503 174.95 38.367 159.6C36.0646 155.951 34.5097 151.882 33.7926 147.627C33.0755 143.373 33.2104 139.019 34.1895 134.817C35.1687 130.615 36.9725 126.65 39.4964 123.151C42.0202 119.651 45.2139 116.688 48.892 114.433L51.0587 113.1" fill="#F8F8F6"/>
<path d="M66.6667 141.667L108.333 116.667L101.483 120.8C85.9834 130.392 64.7251 124.892 55.0334 109.542C52.7313 105.892 51.177 101.822 50.4605 97.5677C49.744 93.3131 49.8796 88.9585 50.8595 84.7566C51.8394 80.5548 53.6441 76.5894 56.1688 73.0906C58.6935 69.5918 61.8879 66.6293 65.5667 64.3749L107.683 38.3166C123.183 28.7333 143.608 33.3999 153.3 48.7499C155.602 52.3991 157.156 56.4691 157.873 60.7238C158.589 64.9784 158.454 69.333 157.474 73.5349C156.494 77.7367 154.689 81.7021 152.165 85.2009C149.64 88.6997 146.446 91.6622 142.767 93.9166L140.6 95.2499" fill="#F8F8F6"/>
<path d="M131.174 76.9566C136.857 73.5468 138.7 66.1757 135.29 60.4927C131.88 54.8098 124.509 52.967 118.826 56.3768L125 66.6667L131.174 76.9566ZM83.3337 91.6667L77.1377 81.39C71.4663 84.8094 69.6371 92.1767 73.0504 97.8517C76.4637 103.527 83.829 105.364 89.5076 101.957L83.3337 91.6667ZM90.1753 87.5417L96.3714 97.8183C96.4097 97.7952 96.4479 97.7719 96.4859 97.7484L90.1753 87.5417ZM136.625 98.8083L126.476 105.211L126.476 105.211L136.625 98.8083ZM126.092 143.975L119.822 133.743C119.808 133.752 119.793 133.761 119.779 133.77L126.092 143.975ZM83.9837 170.025L77.6704 159.82L77.6691 159.821L83.9837 170.025ZM38.367 159.6L48.5163 153.197L48.5154 153.196L38.367 159.6ZM48.892 114.433L55.1642 124.664C55.1699 124.66 55.1755 124.657 55.1812 124.653L48.892 114.433ZM57.3479 123.32C62.9921 119.846 64.752 112.455 61.2786 106.811C57.8052 101.167 50.4138 99.4067 44.7695 102.88L51.0587 113.1L57.3479 123.32ZM60.4928 131.377C54.8098 134.786 52.967 142.158 56.3768 147.841C59.7866 153.523 67.1577 155.366 72.8407 151.956L66.6667 141.667L60.4928 131.377ZM108.333 116.667L114.533 126.941C120.202 123.52 122.029 116.153 118.616 110.48C115.202 104.806 107.837 102.97 102.159 106.377L108.333 116.667ZM101.483 120.8L95.2837 110.525C95.2453 110.549 95.207 110.572 95.1688 110.596L101.483 120.8ZM55.0334 109.542L44.8841 115.944L44.8866 115.948L55.0334 109.542ZM65.5667 64.3749L71.8367 74.6066C71.8513 74.5976 71.8659 74.5886 71.8805 74.5796L65.5667 64.3749ZM107.683 38.3166L101.373 28.1099L101.37 28.1119L107.683 38.3166ZM153.3 48.7499L163.449 42.3473L163.447 42.3435L153.3 48.7499ZM142.767 93.9166L136.497 83.6849C136.49 83.6888 136.484 83.6927 136.478 83.6967L142.767 93.9166ZM134.311 85.03C128.667 88.5034 126.907 95.8948 130.38 101.539C133.854 107.183 141.245 108.943 146.889 105.47L140.6 95.2499L134.311 85.03ZM125 66.6667L118.826 56.3768L77.1597 81.3768L83.3337 91.6667L89.5076 101.957L131.174 76.9566L125 66.6667ZM83.3337 91.6667L89.5297 101.943L96.3714 97.8183L90.1753 87.5417L83.9793 77.265L77.1377 81.39L83.3337 91.6667ZM90.1753 87.5417L96.4859 97.7484C106.089 91.8112 120.117 95.1311 126.476 105.211L136.625 98.8083L146.775 92.4058C133.767 71.7856 105.262 64.1054 83.8648 77.335L90.1753 87.5417ZM136.625 98.8083L126.476 105.211C127.93 107.516 128.912 110.087 129.365 112.775L141.198 110.782L153.032 108.789C152.051 102.968 149.924 97.3989 146.775 92.4058L136.625 98.8083ZM141.198 110.782L129.365 112.775C129.817 115.463 129.732 118.214 129.113 120.868L140.799 123.593L152.486 126.319C153.826 120.569 154.012 114.611 153.032 108.789L141.198 110.782ZM140.799 123.593L129.113 120.868C128.494 123.522 127.354 126.027 125.759 128.237L135.49 135.259L145.221 142.281C148.676 137.494 151.145 132.068 152.486 126.319L140.799 123.593ZM135.49 135.259L125.759 128.237C124.164 130.448 122.146 132.319 119.822 133.743L126.092 143.975L132.362 154.207C137.396 151.122 141.767 147.069 145.221 142.281L135.49 135.259ZM126.092 143.975L119.779 133.77L77.6704 159.82L83.9837 170.025L90.2969 180.23L132.405 154.18L126.092 143.975ZM83.9837 170.025L77.6691 159.821C67.7262 165.974 54.6575 162.933 48.5163 153.197L38.367 159.6L28.2177 166.003C41.4431 186.967 69.2412 193.26 90.2982 180.229L83.9837 170.025ZM38.367 159.6L48.5154 153.196C47.0609 150.891 46.0787 148.32 45.6257 145.633L33.7926 147.627L21.9595 149.622C22.9408 155.443 25.0683 161.012 28.2186 166.004L38.367 159.6ZM33.7926 147.627L45.6257 145.633C45.1727 142.945 45.2579 140.195 45.8764 137.54L34.1895 134.817L22.5026 132.094C21.1629 137.843 20.9783 143.801 21.9595 149.622L33.7926 147.627ZM34.1895 134.817L45.8764 137.54C46.495 134.886 47.6345 132.381 49.2288 130.17L39.4964 123.151L29.7639 116.131C26.3105 120.918 23.8424 126.344 22.5026 132.094L34.1895 134.817ZM39.4964 123.151L49.2288 130.17C50.8232 127.96 52.8407 126.088 55.1642 124.664L48.892 114.433L42.6198 104.203C37.5871 107.289 33.2173 111.343 29.7639 116.131L39.4964 123.151ZM48.892 114.433L55.1812 124.653L57.3479 123.32L51.0587 113.1L44.7695 102.88L42.6028 104.213L48.892 114.433ZM66.6667 141.667L72.8407 151.956L114.507 126.956L108.333 116.667L102.159 106.377L60.4928 131.377L66.6667 141.667ZM108.333 116.667L102.134 106.392L95.2837 110.525L101.483 120.8L107.683 131.074L114.533 126.941L108.333 116.667ZM101.483 120.8L95.1688 110.596C85.5704 116.535 71.5488 113.222 65.1802 103.135L55.0334 109.542L44.8866 115.948C57.9013 136.561 86.3963 144.248 107.798 131.004L101.483 120.8ZM55.0334 109.542L65.1826 103.139C63.7284 100.834 62.7465 98.2627 62.2939 95.575L50.4605 97.5677L38.6271 99.5605C39.6075 105.382 41.7343 110.951 44.8841 115.944L55.0334 109.542ZM50.4605 97.5677L62.2939 95.575C61.8412 92.8872 61.9269 90.1364 62.5459 87.482L50.8595 84.7566L39.1731 82.0312C37.8323 87.7805 37.6467 93.7389 38.6271 99.5605L50.4605 97.5677ZM50.8595 84.7566L62.5459 87.482C63.165 84.8277 64.305 82.3227 65.8999 80.1124L56.1688 73.0906L46.4377 66.0688C42.9832 70.8561 40.5139 76.2819 39.1731 82.0312L50.8595 84.7566ZM56.1688 73.0906L65.8999 80.1124C67.4948 77.9022 69.5127 76.0307 71.8367 74.6066L65.5667 64.3749L59.2968 54.1432C54.2631 57.2278 49.8922 61.2814 46.4377 66.0688L56.1688 73.0906ZM65.5667 64.3749L71.8805 74.5796L113.997 48.5213L107.683 38.3166L101.37 28.1119L59.2529 54.1702L65.5667 64.3749ZM107.683 38.3166L113.994 48.5233C123.936 42.3764 137.002 45.414 143.153 55.1564L153.3 48.7499L163.447 42.3435C150.215 21.3858 122.431 15.0901 101.373 28.1099L107.683 38.3166ZM153.3 48.7499L143.151 55.1525C144.605 57.4577 145.587 60.0288 146.04 62.7165L157.873 60.7238L169.706 58.731C168.726 52.9094 166.599 47.3404 163.449 42.3473L153.3 48.7499ZM157.873 60.7238L146.04 62.7165C146.492 65.4043 146.407 68.1551 145.787 70.8095L157.474 73.5349L169.16 76.2603C170.501 70.5109 170.687 64.5526 169.706 58.731L157.873 60.7238ZM157.474 73.5349L145.787 70.8095C145.168 73.4638 144.028 75.9688 142.434 78.1791L152.165 85.2009L161.896 92.2227C165.35 87.4354 167.82 82.0096 169.16 76.2603L157.474 73.5349ZM152.165 85.2009L142.434 78.1791C140.839 80.3893 138.821 82.2608 136.497 83.6849L142.767 93.9166L149.037 104.148C154.07 101.064 158.441 97.0101 161.896 92.2227L152.165 85.2009ZM142.767 93.9166L136.478 83.6967L134.311 85.03L140.6 95.2499L146.889 105.47L149.056 104.136L142.767 93.9166Z" fill="#F8F8F6" mask="url(#path-1-outside-1_2053_349)"/>
<path d="M71.8799 74.5789L71.8809 74.5799L113.996 48.5193C123.934 42.3773 136.997 45.4118 143.15 55.1502V55.1512C144.605 57.4566 145.587 60.0293 146.04 62.7166C146.492 65.4034 146.406 68.1545 145.787 70.8094C145.168 73.4646 144.028 75.9701 142.434 78.1795C141.258 79.8087 139.851 81.2535 138.262 82.4715C135.953 80.4535 133.459 78.6794 130.829 77.1629L131.175 76.9568C136.858 73.5468 138.699 66.1753 135.29 60.493C131.934 54.8999 124.74 53.0252 119.095 56.2205L118.827 56.3767L85.3818 76.4431C84.9277 76.6989 84.4575 76.9717 83.9805 77.2644L77.1494 81.3826L77.0254 81.4597L77.0146 81.4666C71.4411 84.9178 69.6619 92.2178 73.0498 97.8513H73.0508C76.4639 103.526 83.829 105.364 89.5078 101.957L97.4307 97.2029C107.007 92.0143 120.343 95.4895 126.476 105.211C127.93 107.517 128.913 110.088 129.365 112.775C129.818 115.462 129.731 118.213 129.112 120.868C128.493 123.523 127.353 126.027 125.759 128.237C124.17 130.438 122.162 132.303 119.85 133.725C119.829 133.738 119.806 133.753 119.779 133.769H119.778L77.6699 159.82V159.821C67.7284 165.973 54.6578 162.934 48.5156 153.197V153.196L48.248 152.762C47.0277 150.717 46.172 148.474 45.7178 146.136L45.626 145.633C45.1729 142.945 45.2578 140.194 45.876 137.541C46.4944 134.887 47.635 132.38 49.2295 130.17C50.4047 128.54 51.8102 127.096 53.3984 125.878C55.7042 127.893 58.1953 129.664 60.8213 131.178L60.4922 131.377C54.8092 134.787 52.968 142.159 56.377 147.841L56.3779 147.842C59.788 153.524 67.1585 155.366 72.8408 151.957L106.179 131.952C106.642 131.692 107.115 131.418 107.593 131.127C107.623 131.109 107.654 131.093 107.684 131.075L114.533 126.941L114.796 126.778C120.259 123.291 121.975 116.065 118.615 110.48V110.479C115.255 104.895 108.068 103.028 102.428 106.22L102.16 106.377L94.1543 111.178C84.7528 116.227 71.7478 112.96 65.4863 103.606L65.1465 103.081C63.7123 100.79 62.7428 98.2401 62.2939 95.575C61.8413 92.8869 61.9271 90.136 62.5459 87.4822C63.1648 84.8284 64.3052 82.3227 65.9004 80.1121C67.4951 77.9022 69.5131 76.0313 71.8369 74.6072L71.8379 74.6062C71.8533 74.5968 71.8669 74.587 71.8799 74.5789ZM71.8799 74.5789C71.9013 74.5655 71.9195 74.555 71.9326 74.5467C71.9351 74.5451 71.9372 74.5432 71.9395 74.5418M71.8799 74.5789C71.9042 74.5638 71.9248 74.5511 71.9395 74.5418M71.9395 74.5418C71.9446 74.5385 71.9495 74.5363 71.9531 74.534C71.9601 74.5295 71.966 74.526 71.9688 74.5242L71.9707 74.5222C71.9695 74.5231 71.9647 74.5264 71.959 74.5301C71.9543 74.5331 71.9471 74.5369 71.9395 74.5418ZM101.373 28.1092C121.779 15.4929 148.497 21.0139 162.176 40.4383L162.817 41.3738L162.858 41.4363L163.405 42.2781L163.447 42.3474H163.449C166.599 47.3404 168.726 52.9096 169.706 58.7312C170.686 64.5528 170.501 70.5114 169.16 76.2605C167.819 82.0097 165.35 87.4353 161.896 92.2224C159.018 96.2108 155.501 99.6863 151.499 102.519C152.084 104.332 152.554 106.184 152.903 108.065L153.031 108.79L153.202 109.883C153.985 115.355 153.742 120.929 152.485 126.319C151.145 132.067 148.676 137.493 145.222 142.281C141.767 147.069 137.396 151.122 132.362 154.207C132.343 154.219 132.323 154.229 132.304 154.241L90.2969 180.23C90.2697 180.247 90.2412 180.262 90.2139 180.278C69.1892 193.227 41.4844 186.953 28.2598 166.065C28.2464 166.045 28.2319 166.025 28.2188 166.004C25.0684 161.011 22.9412 155.443 21.96 149.623V149.622C20.9789 143.801 21.1632 137.843 22.5029 132.094C23.8427 126.344 26.3114 120.918 29.7646 116.131C32.6415 112.142 36.1557 108.664 40.1582 105.83C39.4987 103.786 38.9856 101.691 38.627 99.5613C37.6466 93.7397 37.8321 87.7802 39.1729 82.031C40.5137 76.2816 42.9835 70.856 46.4375 66.0691C49.8818 61.2959 54.2375 57.2511 59.2529 54.1697L101.37 28.1111C101.371 28.1106 101.372 28.1097 101.373 28.1092ZM119.937 133.675C119.933 133.677 119.925 133.681 119.916 133.686C119.91 133.69 119.903 133.695 119.894 133.7C119.907 133.692 119.918 133.686 119.926 133.681C119.932 133.678 119.938 133.675 119.939 133.674C119.939 133.674 119.937 133.674 119.937 133.675Z" fill="#FF3D00" stroke="#F8F8F6" stroke-width="12" stroke-linecap="round" stroke-linejoin="round"/>
</svg>
