<svg width="200" height="200" viewBox="0 0 200 200" fill="none" xmlns="http://www.w3.org/2000/svg">
<path d="M98.3066 38.0078C109.417 38.1699 118.156 40.8278 125.364 44.9043C130.872 48.0193 135.17 51.8034 138.556 55.0684L139.952 56.4326L139.966 56.4463L141.413 57.8848C141.421 57.8922 141.429 57.8997 141.437 57.9072C146.641 63.102 148.538 64.5635 150.624 65.0771C150.627 65.0778 150.63 65.0784 150.633 65.0791C153.538 65.7913 155.748 65.5407 157.708 64.7168C159.82 63.8288 162.473 61.9108 165.459 57.9961C168.919 53.4612 175.093 51.9891 180.227 54.4727C185.36 56.9566 188.037 62.7115 186.629 68.2383C183.563 80.2709 177.878 90.4981 168.803 97.6299C161.41 103.44 152.591 106.546 142.912 107.505C144.095 107.628 145.274 107.93 146.408 108.419L146.893 108.64L147.366 108.882C152.034 111.399 154.497 116.694 153.415 121.886L153.295 122.404C150.229 134.436 144.545 144.665 135.47 151.797C126.662 158.719 115.83 161.805 103.931 161.991L102.775 162C91.1483 162 82.0755 159.304 74.6348 155.096C67.4648 151.041 62.2972 145.809 58.5752 142.104H58.5742C58.5707 142.1 58.567 142.096 58.5635 142.093C53.3553 136.894 51.4595 135.433 49.3711 134.921C49.3699 134.921 49.3684 134.921 49.3672 134.921C46.4616 134.209 44.2508 134.458 42.291 135.282L42.292 135.283C40.1802 136.171 37.5275 138.089 34.541 142.004C31.1894 146.397 25.2905 147.915 20.2578 145.748L19.7734 145.527C14.6398 143.043 11.9629 137.289 13.3711 131.762C16.4371 119.729 22.1224 109.502 31.1973 102.37C38.5902 96.5603 47.4082 93.4528 57.0869 92.4941C55.7347 92.3532 54.3886 91.9801 53.1074 91.3604C47.9737 88.8767 45.2969 83.1228 46.7051 77.5957L47 76.4727C50.1293 64.9271 55.7386 55.1124 64.5303 48.2031C73.6227 41.0577 84.8712 38.0001 97.2246 38L98.3066 38.0078ZM65.2627 116.186C69.6354 119.092 72.9925 122.585 75.5078 125.096L76.9404 126.516C80.2061 129.728 82.9797 132.243 86.4492 134.205C89.9221 136.169 94.5237 137.79 101.402 137.98C97.0198 135.069 93.6624 131.571 91.1465 129.06C91.1411 129.054 91.1362 129.048 91.1309 129.043C87.4688 125.397 84.5579 122.573 80.9492 120.391L80.2158 119.962C76.7425 117.998 72.1417 116.376 65.2627 116.186ZM82.665 80.7461C79.7762 80.0443 77.5759 80.296 75.625 81.1162C73.5129 82.0044 70.8601 83.9227 67.874 87.8369C66.1531 90.0927 63.7601 91.5895 61.1582 92.2197C62.0629 92.1856 62.9742 92.167 63.8916 92.167C75.5185 92.167 84.5898 94.8635 92.0303 99.0713L92.6162 99.4072C97.8444 102.456 101.957 106.087 105.223 109.235L106.619 110.6L106.632 110.612L108.087 112.058L108.101 112.072L108.103 112.074H108.104C113.128 117.09 115.054 118.615 117.08 119.187L117.334 119.253C120.223 119.955 122.423 119.704 124.374 118.884C126.486 117.996 129.14 116.078 132.126 112.163C133.847 109.907 136.239 108.41 138.841 107.779C138.317 107.799 137.792 107.816 137.264 107.824L136.108 107.833C124.926 107.833 116.074 105.294 108.77 101.328L108.067 100.94C100.882 96.8955 95.6804 91.6932 91.9082 87.9375L91.8965 87.9258C86.871 82.9093 84.9449 81.3835 82.9189 80.8125L82.665 80.7461ZM98.5977 62.0186C102.98 64.9305 106.338 68.4292 108.854 70.9404C108.858 70.9451 108.862 70.9503 108.867 70.9551C112.724 74.7949 115.848 77.7786 119.841 80.0264C123.361 82.0079 127.969 83.6206 134.734 83.8135C130.358 80.9056 127.005 77.4133 124.491 74.9033L123.059 73.4834C119.793 70.2708 117.019 67.7571 113.55 65.7949C110.077 63.8309 105.476 62.2094 98.5977 62.0186Z" fill="#38BDF8" stroke="#F8F8F6" stroke-width="12" stroke-linecap="round" stroke-linejoin="round"/>
<path d="M97.225 50C76.475 50 63.525 60.1833 58.3333 80.5583C66.1083 70.3667 75.1917 66.5583 85.5583 69.1C91.475 70.55 95.7 74.7667 100.375 79.4333C108.008 87.0333 117.042 95.8333 136.108 95.8333C156.858 95.8333 169.808 85.65 175 65.275C167.225 75.4667 158.142 79.275 147.775 76.7333C141.858 75.2833 137.633 71.0667 132.958 66.4C125.325 58.8 116.5 50 97.225 50ZM63.8917 104.167C43.1417 104.167 30.1917 114.35 25 134.725C32.775 124.533 41.8583 120.725 52.225 123.267C58.1417 124.717 62.3667 128.933 67.0417 133.6C74.675 141.2 83.5 150 102.775 150C123.525 150 136.475 139.817 141.667 119.442C133.892 129.633 124.808 133.442 114.442 130.9C108.525 129.45 104.3 125.233 99.625 120.567C91.9917 112.967 83.1667 104.167 63.8917 104.167Z" fill="#38BDF8"/>
</svg>
