<svg width="200" height="200" viewBox="0 0 200 200" fill="none" xmlns="http://www.w3.org/2000/svg">
<path d="M125 145.833C127.667 148.5 131.283 150 135.058 150H139.583C145.333 150 150 145.333 150 139.583V137.5C150 134.185 148.683 131.005 146.339 128.661C143.995 126.317 140.815 125 137.5 125C134.185 125 131.005 123.683 128.661 121.339C126.317 118.995 125 115.815 125 112.5V110.417C125 104.667 129.667 100 135.417 100H139.942C143.717 100 147.333 101.5 150 104.167" fill="#3178C6"/>
<path d="M75 100H108.333H75Z" fill="#3178C6"/>
<path d="M91.6667 100V150V100Z" fill="#3178C6"/>
<path d="M175 158.333V41.6667C175 37.2464 173.244 33.0072 170.118 29.8816C166.993 26.7559 162.754 25 158.333 25H41.6667C37.2464 25 33.0072 26.7559 29.8816 29.8816C26.7559 33.0072 25 37.2464 25 41.6667V158.333C25 162.754 26.7559 166.993 29.8816 170.118C33.0072 173.244 37.2464 175 41.6667 175H158.333C162.754 175 166.993 173.244 170.118 170.118C173.244 166.993 175 162.754 175 158.333Z" fill="#3178C6"/>
<path d="M169 41.667C169 38.838 167.876 36.1244 165.876 34.124C163.876 32.1236 161.162 31 158.333 31H41.667C38.838 31 36.1244 32.1236 34.124 34.124C32.1236 36.1244 31 38.838 31 41.667V158.333C31 161.162 32.1236 163.876 34.124 165.876C36.1244 167.876 38.838 169 41.667 169H158.333C161.162 169 163.876 167.876 165.876 165.876C167.876 163.876 169 161.162 169 158.333V41.667ZM85.667 150V106H75C71.6863 106 69 103.314 69 100C69 96.6863 71.6863 94 75 94H108.333C111.647 94 114.333 96.6863 114.333 100C114.333 103.314 111.647 106 108.333 106H97.667V150C97.667 153.314 94.9805 156 91.667 156C88.3533 156 85.667 153.314 85.667 150ZM144 139.583V137.5C144 135.776 143.315 134.122 142.096 132.903C140.877 131.685 139.224 131 137.5 131C132.593 131 127.888 129.05 124.419 125.581C120.95 122.112 119 117.407 119 112.5V110.417C119 101.353 126.353 94 135.417 94H139.941C145.309 94 150.451 96.133 154.242 99.9238C156.585 102.267 156.585 106.066 154.242 108.409C151.899 110.752 148.101 110.752 145.758 108.409C144.215 106.867 142.124 106 139.941 106H135.417C132.981 106 131 107.981 131 110.417V112.5C131 114.224 131.684 115.878 132.903 117.097C134.122 118.316 135.776 119 137.5 119C142.407 119 147.112 120.95 150.581 124.419C154.05 127.888 156 132.593 156 137.5V139.583C156 148.647 148.647 156 139.583 156H135.059C129.691 156 124.549 153.867 120.758 150.076C118.415 147.733 118.415 143.934 120.758 141.591C123.101 139.248 126.899 139.248 129.242 141.591C130.785 143.133 132.876 144 135.059 144H139.583C142.019 144 144 142.019 144 139.583ZM181 158.333C181 164.345 178.612 170.111 174.361 174.361C170.111 178.612 164.345 181 158.333 181H41.667C35.6554 181 29.8895 178.612 25.6387 174.361C21.3878 170.111 19 164.345 19 158.333V41.667C19 35.6554 21.3878 29.8895 25.6387 25.6387C29.8895 21.3878 35.6554 19 41.667 19H158.333C164.345 19 170.111 21.3878 174.361 25.6387C178.612 29.8895 181 35.6554 181 41.667V158.333Z" fill="#F8F8F6"/>
</svg>
