<svg width="200" height="200" viewBox="0 0 200 200" fill="none" xmlns="http://www.w3.org/2000/svg">
<path d="M100 27.3333C102.107 27.3333 104.06 28.4393 105.144 30.2464L180.144 155.246C181.257 157.1 181.286 159.408 180.222 161.289C179.157 163.17 177.162 164.333 175 164.333H25C22.8383 164.333 20.8433 163.17 19.7783 161.289C18.7134 159.408 18.7433 157.1 19.8554 155.246L94.8554 30.2464L95.0683 29.9154C96.1841 28.305 98.0242 27.3333 100 27.3333ZM35.5966 152.333H164.403L100 44.9945L35.5966 152.333Z" fill="#171717" stroke="#F8F8F6" stroke-width="12" stroke-linecap="round" stroke-linejoin="round"/>
<path d="M25 158.333H175L100 33.3333L25 158.333Z" fill="#171717"/>
</svg>
